<?xml version="1.0" encoding="UTF-8" standalone="no"?>
<svg
   xmlns:dc="http://purl.org/dc/elements/1.1/"
   xmlns:cc="http://creativecommons.org/ns#"
   xmlns:rdf="http://www.w3.org/1999/02/22-rdf-syntax-ns#"
   xmlns:svg="http://www.w3.org/2000/svg"
   xmlns="http://www.w3.org/2000/svg"
   xmlns:sodipodi="http://sodipodi.sourceforge.net/DTD/sodipodi-0.dtd"
   xmlns:inkscape="http://www.inkscape.org/namespaces/inkscape"
   inkscape:version="1.0 (4035a4f, 2020-05-01)"
   sodipodi:docname="flexible.svg"
   id="svg49"
   version="1.1"
   viewBox="0 0 3 3"
   height="3px"
   width="3px">
  <metadata
     id="metadata55">
    <rdf:RDF>
      <cc:Work
         rdf:about="">
        <dc:format>image/svg+xml</dc:format>
        <dc:type
           rdf:resource="http://purl.org/dc/dcmitype/StillImage" />
      </cc:Work>
    </rdf:RDF>
  </metadata>
  <defs
     id="defs53" />
  <sodipodi:namedview
     inkscape:current-layer="Page-1"
     inkscape:window-maximized="0"
     inkscape:window-y="23"
     inkscape:window-x="1650"
     inkscape:cy="1.5"
     inkscape:cx="0.57617188"
     inkscape:zoom="256"
     showgrid="false"
     id="namedview51"
     inkscape:window-height="1369"
     inkscape:window-width="2560"
     inkscape:pageshadow="2"
     inkscape:pageopacity="0"
     guidetolerance="10"
     gridtolerance="10"
     objecttolerance="10"
     borderopacity="1"
     bordercolor="#666666"
     pagecolor="#ffffff" />
  <title
     id="title30">Group 7</title>
  <g
     transform="matrix(1.3606913,0,0,1.3606913,-0.42155149,-0.56663494)"
     fill-rule="evenodd"
     fill="none"
     stroke-width="1"
     stroke="none"
     id="Page-1">
    <g
       style="fill:#ffffff;fill-opacity:1"
       fill="#0e0f12"
       transform="translate(-104,-85)"
       id="1066">
      <g
         style="fill:#ffffff;fill-opacity:1"
         transform="translate(104.12,85.37)"
         id="Group-7">
        <path
           style="fill:#ffffff;fill-opacity:1"
           id="Fill-5176"
           d="M 2.244,2.089 H 0.336 L 0.27,2.023 V 0.533 H 0.286 L 0.319,0.5 0.286,0.467 H 0.27 V 0.287 L 0.336,0.222 h 0.122 v 0.07 L 0.491,0.324 0.524,0.292 v -0.07 h 0.25 v 0.07 L 0.807,0.324 0.84,0.292 v -0.07 h 0.25 v 0.07 L 1.123,0.324 1.156,0.292 v -0.07 h 0.25 v 0.07 L 1.439,0.324 1.472,0.292 v -0.07 h 0.25 v 0.07 L 1.755,0.324 1.787,0.292 v -0.07 h 0.251 v 0.07 L 2.07,0.324 2.103,0.292 v -0.07 h 0.141 l 0.065,0.065 v 0.18 H 2.293 L 2.26,0.5 2.293,0.533 h 0.016 v 1.49 z m 0,-1.934 H 2.103 V 0.086 L 2.07,0.053 2.038,0.086 V 0.155 H 1.787 V 0.086 L 1.755,0.053 1.722,0.086 V 0.155 H 1.472 V 0.086 L 1.439,0.053 1.406,0.086 V 0.155 H 1.156 V 0.086 L 1.123,0.053 1.09,0.086 V 0.155 H 0.84 V 0.086 L 0.807,0.053 0.774,0.086 V 0.155 H 0.524 V 0.086 L 0.491,0.053 0.458,0.086 V 0.155 H 0.336 L 0.204,0.287 V 2.023 L 0.336,2.154 H 2.244 L 2.375,2.023 V 0.287 Z" />
        <polyline
           style="fill:#ffffff;fill-opacity:1"
           points="0.582 0.5 0.549 0.467 0.451 0.467 0.418 0.5 0.451 0.533 0.549 0.533 0.582 0.5"
           id="Fill-5177" />
        <polyline
           style="fill:#ffffff;fill-opacity:1"
           points="1.24 0.533 1.339 0.533 1.372 0.5 1.339 0.467 1.24 0.467 1.207 0.5 1.24 0.533"
           id="Fill-5178" />
        <polyline
           style="fill:#ffffff;fill-opacity:1"
           points="1.109 0.5 1.076 0.467 0.977 0.467 0.944 0.5 0.977 0.533 1.076 0.533 1.109 0.5"
           id="Fill-5179" />
        <polyline
           style="fill:#ffffff;fill-opacity:1"
           points="0.714 0.533 0.813 0.533 0.845 0.5 0.813 0.467 0.714 0.467 0.681 0.5 0.714 0.533"
           id="Fill-5180" />
        <polyline
           style="fill:#ffffff;fill-opacity:1"
           points="1.767 0.533 1.865 0.533 1.898 0.5 1.865 0.467 1.767 0.467 1.734 0.5 1.767 0.533"
           id="Fill-5181" />
        <polyline
           style="fill:#ffffff;fill-opacity:1"
           points="1.602 0.467 1.503 0.467 1.47 0.5 1.503 0.533 1.602 0.533 1.635 0.5 1.602 0.467"
           id="Fill-5182" />
        <polyline
           style="fill:#ffffff;fill-opacity:1"
           points="2.129 0.467 2.03 0.467 1.997 0.5 2.03 0.533 2.129 0.533 2.161 0.5 2.129 0.467"
           id="Fill-5183" />
        <path
           style="fill:#ffffff;fill-opacity:1"
           id="Fill-5184"
           d="M 1.199,1.075 H 1.38 V 0.895 H 1.199 Z m 0,0.065 H 1.38 L 1.445,1.074 V 0.895 L 1.38,0.828 H 1.199 L 1.134,0.895 v 0.179 z" />
        <path
           style="fill:#ffffff;fill-opacity:1"
           id="Fill-5185"
           d="m 0.603,1.075 h 0.18 V 0.895 H 0.603 Z M 0.783,0.828 H 0.603 L 0.537,0.895 V 1.074 L 0.603,1.14 h 0.18 L 0.849,1.074 V 0.895 Z" />
        <path
           style="fill:#ffffff;fill-opacity:1"
           id="Fill-5186"
           d="m 1.796,1.075 h 0.18 V 0.895 H 1.796 Z M 1.976,0.828 H 1.796 L 1.731,0.895 V 1.074 L 1.796,1.14 h 0.18 L 2.042,1.074 V 0.895 Z" />
        <path
           style="fill:#ffffff;fill-opacity:1"
           id="Fill-5187"
           d="m 0.603,1.707 h 0.18 V 1.526 H 0.603 Z M 0.783,1.46 H 0.603 L 0.537,1.526 v 0.18 l 0.066,0.066 h 0.18 L 0.849,1.706 v -0.18 z" />
        <path
           style="fill:#ffffff;fill-opacity:1"
           id="Fill-5188"
           d="m 1.796,1.707 h 0.18 V 1.526 H 1.796 Z M 1.976,1.46 H 1.796 L 1.731,1.526 v 0.18 l 0.065,0.066 h 0.18 L 2.042,1.706 v -0.18 z" />
        <path
           style="fill:#ffffff;fill-opacity:1"
           id="Fill-5189"
           d="M 1.52,1.632 C 1.52,1.75 1.424,1.846 1.306,1.846 H 1.273 C 1.155,1.846 1.059,1.75 1.059,1.632 V 1.6 c 0,-0.118 0.096,-0.214 0.214,-0.214 H 1.306 L 1.408,1.411 1.286,1.644 1.209,1.524 1.164,1.515 1.154,1.561 1.262,1.727 1.29,1.742 H 1.291 L 1.318,1.725 1.461,1.452 1.52,1.6 Z M 1.492,1.392 1.532,1.315 1.518,1.271 1.474,1.284 1.438,1.354 1.306,1.319 H 1.273 c -0.154,0 -0.28,0.126 -0.28,0.281 v 0.032 c 0,0.154 0.126,0.28 0.28,0.28 h 0.033 c 0.154,0 0.28,-0.126 0.28,-0.28 V 1.6 Z" />
      </g>
    </g>
  </g>
</svg>
