<?xml version="1.0" encoding="UTF-8" standalone="no"?>
<svg
   xmlns:dc="http://purl.org/dc/elements/1.1/"
   xmlns:cc="http://creativecommons.org/ns#"
   xmlns:rdf="http://www.w3.org/1999/02/22-rdf-syntax-ns#"
   xmlns:svg="http://www.w3.org/2000/svg"
   xmlns="http://www.w3.org/2000/svg"
   xmlns:sodipodi="http://sodipodi.sourceforge.net/DTD/sodipodi-0.dtd"
   xmlns:inkscape="http://www.inkscape.org/namespaces/inkscape"
   inkscape:version="1.0 (4035a4f, 2020-05-01)"
   sodipodi:docname="Group 2.svg"
   id="svg70"
   version="1.1"
   viewBox="0 0 3 3"
   height="3px"
   width="3px">
  <metadata
     id="metadata76">
    <rdf:RDF>
      <cc:Work
         rdf:about="">
        <dc:format>image/svg+xml</dc:format>
        <dc:type
           rdf:resource="http://purl.org/dc/dcmitype/StillImage" />
      </cc:Work>
    </rdf:RDF>
  </metadata>
  <defs
     id="defs74" />
  <sodipodi:namedview
     inkscape:current-layer="svg70"
     inkscape:window-maximized="0"
     inkscape:window-y="23"
     inkscape:window-x="1650"
     inkscape:cy="1.5"
     inkscape:cx="0.57617188"
     inkscape:zoom="256"
     showgrid="false"
     id="namedview72"
     inkscape:window-height="1369"
     inkscape:window-width="2560"
     inkscape:pageshadow="2"
     inkscape:pageopacity="0"
     guidetolerance="10"
     gridtolerance="10"
     objecttolerance="10"
     borderopacity="1"
     bordercolor="#666666"
     pagecolor="#ffffff" />
  <title
     id="title57">Group 2</title>
  <g
     style="fill:#ffffff;fill-opacity:1"
     transform="matrix(1.3632885,0,0,1.3632885,-0.39986548,0.03551955)"
     fill-rule="evenodd"
     fill="none"
     stroke-width="1"
     stroke="none"
     id="Page-1">
    <g
       style="fill:#ffffff;fill-opacity:1"
       fill="#0e0f12"
       transform="translate(-104,-95)"
       id="1066">
      <g
         style="fill:#ffffff;fill-opacity:1"
         transform="translate(104.305,94.7825)"
         id="Group-2">
        <g
           style="fill:#ffffff;fill-opacity:1"
           transform="translate(0,0.2165)"
           id="Group">
          <path
             style="fill:#ffffff;fill-opacity:1"
             id="Fill-5268"
             d="M 1.318,1.941 H 0.854 L 0.901,1.777 h 0.37 z M 1.547,2.057 1.497,2.106 H 0.674 L 0.625,2.057 0.674,2.008 H 1.497 Z M 2.139,0.95 2.106,0.982 V 1.465 H 1.613 L 1.58,1.498 1.613,1.531 H 2.106 V 1.612 L 2.007,1.711 H 0.165 L 0.066,1.612 V 1.531 H 1.091 L 1.123,1.498 1.091,1.465 H 0.066 v -1.3 L 0.165,0.066 h 0.46 L 0.658,0.033 0.625,0 H 0.165 C 0.074,0 0,0.074 0,0.165 V 1.612 C 0,1.703 0.074,1.777 0.165,1.777 H 0.833 L 0.785,1.941 H 0.674 L 0.56,2.057 0.674,2.172 H 1.497 L 1.612,2.057 1.497,1.941 H 1.386 L 1.34,1.777 h 0.667 c 0.091,0 0.165,-0.074 0.165,-0.165 v -0.63 z" />
          <path
             style="fill:#ffffff;fill-opacity:1"
             id="Fill-5271"
             d="M 2.106,0.753 H 1.345 L 1.325,0.759 1.081,0.943 V 0.785 L 1.049,0.753 H 0.855 V 0.066 H 2.106 Z M 1.58,1.24 H 1.386 L 1.354,1.273 V 1.432 L 1.11,1.248 1.09,1.24 H 0.329 V 0.555 h 0.46 v 0.23 L 0.822,0.818 H 1.016 V 1.01 L 1.034,1.039 1.049,1.043 1.069,1.036 1.356,0.818 H 1.58 Z M 2.139,0 H 0.822 L 0.789,0.033 V 0.488 H 0.297 L 0.263,0.522 V 1.273 L 0.297,1.307 H 1.079 L 1.367,1.524 1.386,1.531 1.401,1.527 1.42,1.498 V 1.307 H 1.613 L 1.646,1.273 V 0.818 H 2.139 L 2.172,0.785 V 0.033 Z" />
        </g>
        <polyline
           style="fill:#ffffff;fill-opacity:1"
           points="0.501 1.0215 0.617 1.0215 0.65 0.9885 0.617 0.9555 0.501 0.9555 0.468 0.9885 0.501 1.0215"
           id="Fill-5269" />
        <polyline
           style="fill:#ffffff;fill-opacity:1"
           points="0.822 1.1975 0.501 1.1975 0.468 1.2305 0.501 1.2635 0.822 1.2635 0.855 1.2305 0.822 1.1975"
           id="Fill-5270" />
        <polyline
           style="fill:#ffffff;fill-opacity:1"
           points="1.027 0.5325 1.934 0.5325 1.967 0.4995 1.934 0.4675 1.027 0.4675 0.994 0.4995 1.027 0.5325"
           id="Fill-5272" />
        <polyline
           style="fill:#ffffff;fill-opacity:1"
           points="1.027 0.7715 1.722 0.7715 1.756 0.7385 1.722 0.7045 1.027 0.7045 0.994 0.7385 1.027 0.7715"
           id="Fill-5273" />
        <polyline
           style="fill:#ffffff;fill-opacity:1"
           points="1.297 1.2305 1.33 1.2635 1.413 1.2635 1.446 1.2305 1.413 1.1975 1.33 1.1975 1.297 1.2305"
           id="Fill-5274" />
      </g>
    </g>
  </g>
</svg>
