<?xml version="1.0" encoding="UTF-8" standalone="no"?>
<svg
   xmlns:dc="http://purl.org/dc/elements/1.1/"
   xmlns:cc="http://creativecommons.org/ns#"
   xmlns:rdf="http://www.w3.org/1999/02/22-rdf-syntax-ns#"
   xmlns:svg="http://www.w3.org/2000/svg"
   xmlns="http://www.w3.org/2000/svg"
   xmlns:sodipodi="http://sodipodi.sourceforge.net/DTD/sodipodi-0.dtd"
   xmlns:inkscape="http://www.inkscape.org/namespaces/inkscape"
   inkscape:version="1.0 (4035a4f, 2020-05-01)"
   sodipodi:docname="services.svg"
   id="svg185"
   version="1.1"
   viewBox="0 0 3 3"
   height="3px"
   width="3px">
  <metadata
     id="metadata191">
    <rdf:RDF>
      <cc:Work
         rdf:about="">
        <dc:format>image/svg+xml</dc:format>
        <dc:type
           rdf:resource="http://purl.org/dc/dcmitype/StillImage" />
      </cc:Work>
    </rdf:RDF>
  </metadata>
  <defs
     id="defs189" />
  <sodipodi:namedview
     inkscape:current-layer="svg185"
     inkscape:window-maximized="0"
     inkscape:window-y="23"
     inkscape:window-x="1650"
     inkscape:cy="1.5"
     inkscape:cx="0.57617188"
     inkscape:zoom="256"
     showgrid="false"
     id="namedview187"
     inkscape:window-height="1369"
     inkscape:window-width="2560"
     inkscape:pageshadow="2"
     inkscape:pageopacity="0"
     guidetolerance="10"
     gridtolerance="10"
     objecttolerance="10"
     borderopacity="1"
     bordercolor="#666666"
     pagecolor="#ffffff" />
  <title
     id="title162">Group 4</title>
  <g
     style="fill:#ffffff;fill-opacity:1"
     transform="matrix(1.351625,0,0,1.351625,-0.10247269,-0.89000388)"
     fill-rule="evenodd"
     fill="none"
     stroke-width="1"
     stroke="none"
     id="Page-1">
    <g
       style="fill:#ffffff;fill-opacity:1"
       fill="#0e0f12"
       transform="translate(-76,-75)"
       id="1066">
      <g
         style="fill:#ffffff;fill-opacity:1"
         transform="translate(76.091,75.3835)"
         id="Group-4">
        <path
           style="fill:#ffffff;fill-opacity:1"
           id="Fill-5609"
           d="M 0.301,0.6315 H 2.106 V 0.3695 H 0.301 Z m 1.837,-0.328 h -1.87 l -0.033,0.033 v 1.14 l 0.033,0.034 0.033,-0.034 v -0.779 h 1.805 v 1.706 H 0.301 V 2.1215 L 0.268,2.0895 0.235,2.1215 v 0.314 l 0.033,0.034 h 1.87 l 0.033,-0.034 v -2.099 z" />
        <polyline
           style="fill:#ffffff;fill-opacity:1"
           points="1.943 0.4765 1.933 0.5005 1.943 0.5235 1.966 0.5325 1.989 0.5235 1.999 0.5005 1.989 0.4765 1.943 0.4765"
           id="Fill-5610" />
        <polyline
           style="fill:#ffffff;fill-opacity:1"
           points="1.786 0.4675 1.753 0.5005 1.786 0.5325 1.819 0.5005 1.786 0.4675"
           id="Fill-5611" />
        <polyline
           style="fill:#ffffff;fill-opacity:1"
           points="1.582 0.4765 1.572 0.5005 1.582 0.5235 1.605 0.5325 1.628 0.5235 1.638 0.5005 1.628 0.4765 1.582 0.4765"
           id="Fill-5612" />
        <path
           style="fill:#ffffff;fill-opacity:1"
           id="Fill-5613"
           d="m 0.563,0.9655 h 0.131 l 0.001,0.131 H 0.563 Z M 0.694,1.1615 0.76,1.0965 V 0.9655 L 0.694,0.8985 H 0.563 l -0.066,0.067 v 0.131 l 0.066,0.065 z" />
        <polyline
           style="fill:#ffffff;fill-opacity:1"
           points="0.53 2.1685 0.563 2.2015 0.695 2.2015 0.76 2.1355 0.76 2.0045 0.695 1.9385 0.629 1.9385 0.596 1.9725 0.629 2.0045 0.694 2.0045 0.695 2.1355 0.563 2.1355 0.53 2.1685"
           id="Fill-5614" />
        <polyline
           style="fill:#ffffff;fill-opacity:1"
           points="1.913 0.8985 1.651 0.8985 1.618 0.9315 1.651 0.9655 1.913 0.9655 1.946 0.9315 1.913 0.8985"
           id="Fill-5615" />
        <polyline
           style="fill:#ffffff;fill-opacity:1"
           points="1.454 0.8985 0.961 0.8985 0.928 0.9315 0.961 0.9655 1.454 0.9655 1.487 0.9315 1.454 0.8985"
           id="Fill-5616" />
        <polyline
           style="fill:#ffffff;fill-opacity:1"
           points="1.323 1.1295 1.355 1.1615 1.716 1.1615 1.749 1.1295 1.716 1.0965 1.355 1.0965 1.323 1.1295"
           id="Fill-5617" />
        <polyline
           style="fill:#ffffff;fill-opacity:1"
           points="0.961 1.1615 1.191 1.1615 1.224 1.1295 1.191 1.0965 0.961 1.0965 0.928 1.1295 0.961 1.1615"
           id="Fill-5618" />
        <polyline
           style="fill:#ffffff;fill-opacity:1"
           points="1.913 1.4195 1.322 1.4195 1.289 1.4515 1.322 1.4845 1.913 1.4845 1.946 1.4515 1.913 1.4195"
           id="Fill-5619" />
        <polyline
           style="fill:#ffffff;fill-opacity:1"
           points="0.961 1.4845 1.125 1.4845 1.157 1.4515 1.125 1.4195 0.961 1.4195 0.928 1.4515 0.961 1.4845"
           id="Fill-5620" />
        <polyline
           style="fill:#ffffff;fill-opacity:1"
           points="1.65 1.6815 1.683 1.6485 1.65 1.6155 1.487 1.6155 1.454 1.6485 1.487 1.6815 1.65 1.6815"
           id="Fill-5621" />
        <polyline
           style="fill:#ffffff;fill-opacity:1"
           points="0.961 1.6815 1.323 1.6815 1.356 1.6485 1.323 1.6155 0.961 1.6155 0.928 1.6485 0.961 1.6815"
           id="Fill-5622" />
        <polyline
           style="fill:#ffffff;fill-opacity:1"
           points="1.388 1.9725 1.42 2.0045 1.913 2.0045 1.946 1.9725 1.913 1.9385 1.42 1.9385 1.388 1.9725"
           id="Fill-5623" />
        <polyline
           style="fill:#ffffff;fill-opacity:1"
           points="0.961 2.0045 1.223 2.0045 1.256 1.9725 1.223 1.9385 0.961 1.9385 0.928 1.9725 0.961 2.0045"
           id="Fill-5624" />
        <polyline
           style="fill:#ffffff;fill-opacity:1"
           points="0.961 2.2015 1.518 2.2015 1.551 2.1685 1.518 2.1355 0.961 2.1355 0.928 2.1685 0.961 2.2015"
           id="Fill-5625" />
        <path
           style="fill:#ffffff;fill-opacity:1"
           id="Fill-5626"
           d="M 0.576,1.6025 0.42,2.0565 0.334,1.8615 0.317,1.8465 0.122,1.7595 Z m -0.079,-0.15 0.034,-0.033 h 0.196 l 0.033,0.033 v 0.196 L 0.727,1.6815 H 0.619 L 0.66,1.5605 0.652,1.5275 0.618,1.5185 0.497,1.5605 Z m -0.103,0.707 0.03,0.019 h 0.002 l 0.029,-0.022 0.141,-0.409 h 0.131 l 0.098,-0.099 v -0.196 l -0.098,-0.1 H 0.531 l -0.099,0.1 v 0.131 l -0.41,0.14 -0.022,0.03 0.019,0.032 0.26,0.115 z" />
      </g>
    </g>
  </g>
</svg>
