<svg width="16" height="17" viewBox="0 0 16 17" fill="none" xmlns="http://www.w3.org/2000/svg">
<rect y="0.5" width="16" height="16" rx="8" fill="#F7F3FE"/>
<path d="M11 7.75C11.1354 7.75 11.25 7.80208 11.3438 7.90625C11.4479 8 11.5 8.11458 11.5 8.25V8.75C11.5 8.88542 11.4479 9.00521 11.3438 9.10938C11.25 9.20312 11.1354 9.25 11 9.25H8.75V11.5C8.75 11.6354 8.69792 11.75 8.59375 11.8438C8.5 11.9479 8.38542 12 8.25 12H7.75C7.61458 12 7.49479 11.9479 7.39062 11.8438C7.29688 11.75 7.25 11.6354 7.25 11.5V9.25H5C4.86458 9.25 4.74479 9.20312 4.64062 9.10938C4.54688 9.00521 4.5 8.88542 4.5 8.75V8.25C4.5 8.11458 4.54688 8 4.64062 7.90625C4.74479 7.80208 4.86458 7.75 5 7.75H7.25V5.5C7.25 5.36458 7.29688 5.25 7.39062 5.15625C7.49479 5.05208 7.61458 5 7.75 5H8.25C8.38542 5 8.5 5.05208 8.59375 5.15625C8.69792 5.25 8.75 5.36458 8.75 5.5V7.75H11Z" fill="#6527F5"/>
</svg>
