<svg width="10" height="14" viewBox="0 0 10 14" fill="none" xmlns="http://www.w3.org/2000/svg">
<path d="M4.71432 0H5.28646C5.33323 0.00817959 5.38 0.019631 5.42677 0.0245388C5.80092 0.0638008 6.16884 0.140689 6.50557 0.310824C7.98503 1.06007 8.82999 2.26738 8.883 4.02599C8.89391 4.39898 8.67254 4.65091 8.31709 4.66564C8.13937 4.67382 7.96165 4.67382 7.78393 4.66564C7.46746 4.65091 7.26011 4.44315 7.22426 4.1127C7.21802 4.0538 7.22426 3.99327 7.21334 3.93602C7.15566 3.66773 7.13228 3.38144 7.02627 3.13442C6.61158 2.15287 5.72297 1.65228 4.67379 1.77661C3.67761 1.89439 2.80458 2.87594 2.78743 3.9262C2.77184 4.9192 2.7812 5.91221 2.77964 6.90684C2.77964 6.93302 2.78276 6.95919 2.78588 7.00009H2.94333C4.99649 7.00009 7.04965 7.00009 9.10125 7.00009C9.64222 7.00009 9.9961 7.35672 9.99766 7.90966C10.0008 9.63719 10.0008 11.3647 9.99766 13.0906C9.99766 13.6272 9.64845 13.9969 9.14023 13.9985C6.3793 14.0018 3.61992 13.9985 0.858991 13.9985C0.565905 13.9985 0.322706 13.884 0.157456 13.6288C0.0857432 13.5192 0.0514459 13.3851 0 13.2607V7.73789C0.00779484 7.71826 0.0171486 7.69699 0.0233845 7.67736C0.163692 7.21603 0.439629 7.00173 0.897965 7.00009C0.965001 7.00009 1.0336 7.00009 1.1131 7.00009C1.1131 6.92975 1.1131 6.87576 1.1131 6.82178C1.1131 5.93347 1.11778 5.04681 1.1131 4.1585C1.10687 3.19658 1.35786 2.32627 1.9378 1.57375C2.48811 0.862128 3.16626 0.346815 4.02681 0.129237C4.25286 0.0719804 4.48515 0.0425339 4.71588 0H4.71432Z" fill="white"/>
</svg>
