<?xml version="1.0" encoding="UTF-8" standalone="no"?>
<svg
   xmlns:dc="http://purl.org/dc/elements/1.1/"
   xmlns:cc="http://creativecommons.org/ns#"
   xmlns:rdf="http://www.w3.org/1999/02/22-rdf-syntax-ns#"
   xmlns:svg="http://www.w3.org/2000/svg"
   xmlns="http://www.w3.org/2000/svg"
   xmlns:sodipodi="http://sodipodi.sourceforge.net/DTD/sodipodi-0.dtd"
   xmlns:inkscape="http://www.inkscape.org/namespaces/inkscape"
   inkscape:version="1.0 (4035a4f, 2020-05-01)"
   sodipodi:docname="fees.svg"
   id="svg22"
   version="1.1"
   viewBox="0 0 3 3"
   height="3px"
   width="3px">
  <metadata
     id="metadata28">
    <rdf:RDF>
      <cc:Work
         rdf:about="">
        <dc:format>image/svg+xml</dc:format>
        <dc:type
           rdf:resource="http://purl.org/dc/dcmitype/StillImage" />
      </cc:Work>
    </rdf:RDF>
  </metadata>
  <defs
     id="defs26" />
  <sodipodi:namedview
     inkscape:current-layer="svg22"
     inkscape:window-maximized="1"
     inkscape:window-y="23"
     inkscape:window-x="1650"
     inkscape:cy="1.390625"
     inkscape:cx="0.57617188"
     inkscape:zoom="256"
     showgrid="false"
     id="namedview24"
     inkscape:window-height="1395"
     inkscape:window-width="2560"
     inkscape:pageshadow="2"
     inkscape:pageopacity="0"
     guidetolerance="10"
     gridtolerance="10"
     objecttolerance="10"
     borderopacity="1"
     bordercolor="#666666"
     pagecolor="#ffffff" />
  <title
     id="title10">Group 3</title>
  <g
     style="fill:#ffffff;fill-opacity:1"
     transform="matrix(1.3648806,0,0,1.3648806,0.01489524,-0.42681508)"
     fill-rule="evenodd"
     fill="none"
     stroke-width="1"
     stroke="none"
     id="Page-1">
    <g
       style="fill:#ffffff;fill-opacity:1"
       fill="#0e0f12"
       transform="translate(-99,-28)"
       id="1066">
      <g
         style="fill:#ffffff;fill-opacity:1"
         transform="translate(99.002,28.3215)"
         id="Group-3">
        <path
           style="fill:#ffffff;fill-opacity:1"
           id="Fill-1707"
           d="m 1.75,1.5225 -0.016,0.03 c 0.01,0.174 -0.065,0.279 -0.09,0.312 H 1.443 C 1.45,1.8215 1.453,1.7505 1.425,1.6535 L 1.389,1.6305 1.18,1.6415 1.007,1.6335 l -0.026,0.01 -0.01,0.025 c 0.005,0.1 -0.054,0.172 -0.077,0.196 H 0.69 C 0.698,1.8085 0.702,1.7015 0.658,1.5615 L 0.647,1.5435 0.64,1.5385 0.484,1.4145 0.478,1.4085 0.472,1.4055 C 0.368,1.3495 0.264,1.3235 0.195,1.3115 L 0.231,1.1455 0.2,0.9895 0.412,0.9385 0.427,0.9195 c 0.04,-0.13 0.114,-0.251 0.213,-0.351 l 0.01,-0.012 0.001,-0.001 0.124,-0.212 0.003,-0.003 0.004,0.002 0.106,0.166 0.002,0.004 0.004,0.004 0.006,0.004 0.004,0.002 0.033,0.01 0.009,0.002 L 0.978,0.5115 0.956,0.4705 0.937,0.4635 0.837,0.3075 0.769,0.2765 0.712,0.3245 0.705,0.3465 0.672,0.2605 0.626,0.1085 0.71,0.0695 l 0.093,0.047 0.142,0.071 0.143,-0.071 0.092,-0.047 0.092,0.047 0.143,0.071 0.143,-0.071 0.091,-0.047 0.085,0.039 -0.046,0.152 -0.038,0.137 -0.017,0.013 -0.009,0.047 0.027,0.014 0.011,-0.002 0.058,0.099 c 0.154,0.156 0.246,0.366 0.246,0.562 0,0.175 -0.072,0.307 -0.216,0.392 z M 0.116,0.9895 c 0.014,0 0.05,0.054 0.05,0.156 0,0.1 -0.036,0.155 -0.05,0.155 -0.015,0 -0.05,-0.055 -0.05,-0.155 0,-0.102 0.035,-0.156 0.05,-0.156 z m 0.393,-0.562 0.11,0.061 -0.026,0.034 -0.052,0.057 z m 1.662,0.622 -0.032,-0.032 -0.034,0.033 -0.029,0.072 -0.045,0.021 10e-4,-0.013 c 0,-0.213 -0.099,-0.44 -0.265,-0.608 L 1.744,0.2955 1.8,0.0955 1.792,0.0745 1.649,0.0025 1.507,0.0745 1.415,0.1215 1.323,0.0745 1.18,0.0025 1.037,0.0745 0.945,0.1215 0.853,0.0745 0.71,0.0025 0.567,0.0745 0.56,0.0955 l 0.056,0.2 0.026,0.13 -0.118,-0.064 -0.061,0.004 -0.022,0.057 0.046,0.227 -0.119,0.237 C 0.269,0.9345 0.12,0.9235 0.118,0.9235 H 0.116 C 0.039,0.9235 0,1.0345 0,1.1455 c 0,0.108 0.039,0.219 0.113,0.221 h 0.001 c 0.001,0 0.165,0.011 0.322,0.094 l 0.163,0.131 c 0.053,0.18 0.02,0.294 0.019,0.295 l 0.005,0.029 0.026,0.014 h 0.259 l 0.021,-0.008 c 0.004,-0.004 0.098,-0.086 0.107,-0.22 l 0.144,0.005 0.189,-0.007 c 0.028,0.12 0.002,0.182 0.002,0.183 l 0.002,0.031 0.027,0.016 h 0.258 l 0.024,-0.01 c 0.004,-0.005 0.125,-0.127 0.118,-0.35 0.133,-0.084 0.208,-0.205 0.227,-0.36 l 0.094,-0.039 z" />
        <path
           style="fill:#ffffff;fill-opacity:1"
           id="Fill-1708"
           d="m 0.715,0.9245 -0.07,-0.07 0.07,-0.07 0.069,0.07 z m 0,-0.206 -0.136,0.136 0.136,0.136 0.135,-0.136 z" />
        <path
           style="fill:#ffffff;fill-opacity:1"
           id="Fill-1709"
           d="m 1.393,1.3935 c -0.172,0 -0.312,-0.14 -0.312,-0.313 0,-0.172 0.14,-0.312 0.312,-0.312 0.172,0 0.313,0.14 0.313,0.312 0,0.173 -0.141,0.313 -0.313,0.313 z m 0,-0.691 c -0.208,0 -0.378,0.169 -0.378,0.378 0,0.209 0.17,0.379 0.378,0.379 0.209,0 0.378,-0.17 0.378,-0.379 0,-0.209 -0.169,-0.378 -0.378,-0.378 z" />
        <polyline
           style="fill:#ffffff;fill-opacity:1"
           points="1.393 0.9495 1.451 0.9985 1.484 1.0325 1.517 0.9985 1.426 0.8885 1.426 0.8715 1.393 0.8385 1.36 0.8715 1.36 0.8885 1.269 0.9985 1.393 1.1145 1.451 1.1625 1.393 1.2125 1.335 1.1625 1.303 1.1305 1.269 1.1625 1.36 1.2735 1.36 1.2905 1.393 1.3235 1.426 1.2905 1.426 1.2735 1.517 1.1625 1.393 1.0475 1.335 0.9985 1.393 0.9495"
           id="Fill-1710" />
        <polyline
           style="fill:#ffffff;fill-opacity:1"
           points="1.468 0.5405 1.475 0.5395 1.541 0.5235 1.563 0.4825 1.522 0.4595 1.461 0.4755 1.436 0.5145 1.468 0.5405"
           id="Fill-1711" />
        <polyline
           style="fill:#ffffff;fill-opacity:1"
           points="1.072 0.5595 1.14 0.5655 1.141 0.5655 1.174 0.5335 1.143 0.4995 1.079 0.4945 1.043 0.5235 1.072 0.5595"
           id="Fill-1712" />
        <polyline
           style="fill:#ffffff;fill-opacity:1"
           points="1.272 0.5655 1.274 0.5655 1.341 0.5605 1.371 0.5245 1.335 0.4945 1.271 0.4995 1.24 0.5335 1.272 0.5655"
           id="Fill-1713" />
      </g>
    </g>
  </g>
</svg>
