<svg id="Vrstva_1" data-name="Vrstva 1" xmlns="http://www.w3.org/2000/svg" xmlns:xlink="http://www.w3.org/1999/xlink" width="600" height="3.77" viewBox="0 0 600 3.77"><defs><style>.cls-1{fill:url(#linear-gradient);}</style><linearGradient id="linear-gradient" x1="383.43" y1="383.99" x2="983.43" y2="383.99" gradientUnits="userSpaceOnUse"><stop offset="0" stop-color="#add6bb" stop-opacity="0"/><stop offset="0.05" stop-color="#aad5bc" stop-opacity="0.03"/><stop offset="0.12" stop-color="#a3d4c0" stop-opacity="0.11"/><stop offset="0.2" stop-color="#97d1c6" stop-opacity="0.25"/><stop offset="0.3" stop-color="#86cdce" stop-opacity="0.44"/><stop offset="0.4" stop-color="#70c7d8" stop-opacity="0.69"/><stop offset="0.51" stop-color="#56c1e4" stop-opacity="0.99"/><stop offset="0.51" stop-color="#55c1e5"/><stop offset="0.58" stop-color="#6ac6db" stop-opacity="0.77"/><stop offset="0.66" stop-color="#7ecbd1" stop-opacity="0.54"/><stop offset="0.74" stop-color="#8fcfc9" stop-opacity="0.34"/><stop offset="0.81" stop-color="#9cd2c3" stop-opacity="0.19"/><stop offset="0.88" stop-color="#a5d4bf" stop-opacity="0.09"/><stop offset="0.95" stop-color="#abd6bc" stop-opacity="0.02"/><stop offset="1" stop-color="#add6bb" stop-opacity="0"/></linearGradient></defs><title>line</title><path class="cls-1" d="M383.43,384c25-.42,50-.61,75-.92l75-.52c50-.31,100-.29,150-.44,50,.14,100,.13,150,.43l75,.53c25,.31,50,.49,75,.92-25,.43-50,.62-75,.93l-75,.53c-50,.3-100,.28-150,.43-50-.16-100-.13-150-.44l-75-.53C433.43,384.6,408.43,384.42,383.43,384Z" transform="translate(-383.43 -382.11)"/></svg>