<?xml version="1.0" encoding="UTF-8" standalone="no"?>
<svg
   xmlns:dc="http://purl.org/dc/elements/1.1/"
   xmlns:cc="http://creativecommons.org/ns#"
   xmlns:rdf="http://www.w3.org/1999/02/22-rdf-syntax-ns#"
   xmlns:svg="http://www.w3.org/2000/svg"
   xmlns="http://www.w3.org/2000/svg"
   xmlns:sodipodi="http://sodipodi.sourceforge.net/DTD/sodipodi-0.dtd"
   xmlns:inkscape="http://www.inkscape.org/namespaces/inkscape"
   inkscape:version="1.0 (4035a4f, 2020-05-01)"
   sodipodi:docname="zfees 2.svg"
   id="svg30528"
   version="1.1"
   viewBox="0 0 3 3"
   height="3px"
   width="3px">
  <metadata
     id="metadata30534">
    <rdf:RDF>
      <cc:Work
         rdf:about="">
        <dc:format>image/svg+xml</dc:format>
        <dc:type
           rdf:resource="http://purl.org/dc/dcmitype/StillImage" />
      </cc:Work>
    </rdf:RDF>
  </metadata>
  <defs
     id="defs30532" />
  <sodipodi:namedview
     inkscape:current-layer="svg30528"
     inkscape:window-maximized="0"
     inkscape:window-y="23"
     inkscape:window-x="1650"
     inkscape:cy="1.5"
     inkscape:cx="0.57617188"
     inkscape:zoom="256"
     showgrid="false"
     id="namedview30530"
     inkscape:window-height="1343"
     inkscape:window-width="2560"
     inkscape:pageshadow="2"
     inkscape:pageopacity="0"
     guidetolerance="10"
     gridtolerance="10"
     objecttolerance="10"
     borderopacity="1"
     bordercolor="#666666"
     pagecolor="#ffffff" />
  <title
     id="title30516">Group 3</title>
  <g
     style="fill:#ffffff;fill-opacity:1"
     transform="matrix(1.3689625,0,0,1.3689625,5.6059726,-0.55623092)"
     id="g1673">
    <g
       id="g30494"
       transform="matrix(1.3406026,0,0,1.3406026,-5.1100254,-0.03923167)"
       style="fill:#ffffff;fill-opacity:1">
      <path
         id="path4451"
         style="fill:#ffffff;fill-opacity:1;fill-rule:nonzero;stroke:none;stroke-width:0.0745231"
         d="m 1.5714811,0.51579919 0.024593,-0.024742 -0.024593,-0.023848 -0.023848,0.023848 0.023848,0.024742" />
      <path
         id="path4453"
         style="fill:#ffffff;fill-opacity:1;fill-rule:nonzero;stroke:none;stroke-width:0.0745231"
         d="m 1.218017,0.51579919 h 0.2448836 l 0.024742,-0.0247418 -0.024742,-0.0238475 H 1.218017 l -0.024742,0.023848 0.024742,0.024742" />
      <path
         id="path4455"
         style="fill:#ffffff;fill-opacity:1;fill-rule:nonzero;stroke:none;stroke-width:0.0745231"
         d="M 1.0955007,1.790893 1.0710567,1.815635 1.0955007,1.840377 1.1196457,1.815635 1.0955007,1.790893" />
      <path
         id="path4457"
         style="fill:#ffffff;fill-opacity:1;fill-rule:nonzero;stroke:none;stroke-width:0.0745231"
         d="M 1.5856405,1.790893 1.5610475,1.815635 1.5856405,1.840377 1.6102335,1.815635 1.5856405,1.790893" />
      <path
         id="path4459"
         style="fill:#ffffff;fill-opacity:1;fill-rule:nonzero;stroke:none;stroke-width:0.0745231"
         d="M 1.3406078,1.790893 1.3158658,1.815635 1.3406078,1.840377 1.3650518,1.815635 1.3406078,1.790893" />
      <path
         id="path4461"
         style="fill:#ffffff;fill-opacity:1;fill-rule:nonzero;stroke:none;stroke-width:0.0745231"
         d="M 2.3293831,0.90883509 H 1.2995455 v -0.02422 l 0.074225,-0.074225 h 0.8810891 l 0.074523,0.074225 z m 0,0.19063061 H 1.2995455 V 0.95772239 h 1.0298376 z m 0,0.3231331 -0.074523,0.074225 H 1.3737707 L 1.2995455,1.4225988 V 1.1489492 H 2.3293831 Z M 1.3737707,1.5457113 h 0.334088 V 1.6686002 H 0.97261171 V 0.63891169 H 1.7078587 v 0.1219946 h -0.334088 c -0.068114,0 -0.1234106,0.055296 -0.1234106,0.1237087 v 0.048366 0.19122681 0.2983914 c 0,0.067518 0.055296,0.1231125 0.1234106,0.1231121 z m 0.4816442,0.3435525 -0.024593,0.023848 H 0.85009541 L 0.82565177,1.8892638 V 0.41832265 l 0.0244436,-0.0247417 H 1.8308222 l 0.024593,0.0247417 V 0.76090629 H 1.7570441 V 0.61416989 L 1.7331965,0.59002439 H 0.94816811 l -0.024742,0.024146 V 1.6924482 l 0.024742,0.024742 H 1.7331967 l 0.023847,-0.024742 V 1.5457113 h 0.098371 z M 2.2548598,0.76090629 H 1.9046002 V 0.41832265 L 1.8308222,0.34402291 H 0.85009541 l -0.0734054,0.0742997 V 1.8892638 l 0.0734054,0.073331 H 1.8308222 l 0.073778,-0.073331 V 1.5457113 h 0.3502596 c 0.068561,0 0.1237087,-0.055595 0.1237087,-0.1231125 V 1.1242074 0.93298059 0.88461499 c 0,-0.068412 -0.055147,-0.1237087 -0.1237087,-0.1237087" />
      <path
         id="path4463"
         style="fill:#ffffff;fill-opacity:1;fill-rule:nonzero;stroke:none;stroke-width:0.0745231"
         d="m 1.7324514,1.2819733 0.023848,-0.024742 -0.023848,-0.023848 -0.024593,0.023848 0.024593,0.024742" />
      <path
         id="path4465"
         style="fill:#ffffff;fill-opacity:1;fill-rule:nonzero;stroke:none;stroke-width:0.0745231"
         d="m 1.8427459,1.2819733 0.01714,-0.00693 0.00745,-0.017811 -0.00745,-0.016544 h -0.034281 l -0.00745,0.016544 0.00745,0.017811 0.017141,0.00693" />
      <path
         id="path4467"
         style="fill:#ffffff;fill-opacity:1;fill-rule:nonzero;stroke:none;stroke-width:0.0745231"
         d="m 1.3839804,1.2750426 0.00141,0.00112 0.015426,0.00581 h 0.2213343 l 0.023849,-0.024742 -0.023848,-0.023848 h -0.221329 l -0.01565,0.00641 -0.00119,8.943e-4 -0.0073,0.016544 0.0073,0.017811" />
      <path
         id="path4469"
         style="fill:#ffffff;fill-opacity:1;fill-rule:nonzero;stroke:none;stroke-width:0.0745231"
         d="m 1.4008227,1.4211829 h 0.5887341 l 0.024593,-0.024742 -0.024593,-0.024742 H 1.4008227 l -0.024146,0.024742 0.024146,0.024742" />
    </g>
  </g>
</svg>
