<?xml version="1.0" encoding="UTF-8" standalone="no"?>
<svg
   xmlns:dc="http://purl.org/dc/elements/1.1/"
   xmlns:cc="http://creativecommons.org/ns#"
   xmlns:rdf="http://www.w3.org/1999/02/22-rdf-syntax-ns#"
   xmlns:svg="http://www.w3.org/2000/svg"
   xmlns="http://www.w3.org/2000/svg"
   xmlns:sodipodi="http://sodipodi.sourceforge.net/DTD/sodipodi-0.dtd"
   xmlns:inkscape="http://www.inkscape.org/namespaces/inkscape"
   width="3"
   height="3.2"
   viewBox="0 0 3 3.2"
   version="1.1"
   id="svg136"
   sodipodi:docname="pricing.svg"
   inkscape:version="1.0 (4035a4f, 2020-05-01)">
  <metadata
     id="metadata142">
    <rdf:RDF>
      <cc:Work
         rdf:about="">
        <dc:format>image/svg+xml</dc:format>
        <dc:type
           rdf:resource="http://purl.org/dc/dcmitype/StillImage" />
        <dc:title>Group 5</dc:title>
      </cc:Work>
    </rdf:RDF>
  </metadata>
  <defs
     id="defs140" />
  <sodipodi:namedview
     inkscape:pagecheckerboard="true"
     inkscape:document-rotation="0"
     pagecolor="#ffffff"
     bordercolor="#666666"
     borderopacity="1"
     objecttolerance="10"
     gridtolerance="10"
     guidetolerance="10"
     inkscape:pageopacity="0"
     inkscape:pageshadow="2"
     inkscape:window-width="1650"
     inkscape:window-height="987"
     id="namedview138"
     showgrid="false"
     inkscape:zoom="252"
     inkscape:cx="0.56150794"
     inkscape:cy="2"
     inkscape:window-x="0"
     inkscape:window-y="293"
     inkscape:window-maximized="0"
     inkscape:current-layer="svg136" />
  <title
     id="title125">Group 5</title>
  <g
     id="Page-1"
     stroke="none"
     stroke-width="1"
     fill="none"
     fill-rule="evenodd"
     transform="matrix(1.4010695,0,0,1.4459945,-0.77226041,-1.342054)"
     style="fill:#ffffff;fill-opacity:1">
    <g
       id="1066"
       transform="translate(-93,-32)"
       fill="#0e0f12"
       style="fill:#ffffff;fill-opacity:1">
      <g
         id="Group-3"
         transform="translate(86,16)"
         style="fill:#ffffff;fill-opacity:1">
        <g
           id="Group-5"
           transform="translate(7.57,16.6335)"
           style="fill:#ffffff;fill-opacity:1">
          <polyline
             id="Fill-1751"
             points="0.674 1.2415 0.74 1.2985 0.773 1.3315 0.806 1.2985 0.707 1.1795 0.707 1.1595 0.674 1.1265 0.641 1.1595 0.641 1.1795 0.543 1.2985 0.674 1.4215 0.74 1.4775 0.674 1.5345 0.609 1.4775 0.575 1.4445 0.543 1.4775 0.641 1.5955 0.641 1.6165 0.674 1.6495 0.707 1.6165 0.707 1.5955 0.806 1.4775 0.674 1.3545 0.609 1.2985 0.674 1.2415"
             style="fill:#ffffff;fill-opacity:1" />
          <polyline
             id="Fill-1752"
             points="0.789 0.4675 0.559 0.4675 0.526 0.4995 0.559 0.5325 0.789 0.5325 0.823 0.4995 0.789 0.4675"
             style="fill:#ffffff;fill-opacity:1" />
          <polyline
             id="Fill-1753"
             points="0.559 2.3095 0.789 2.3095 0.823 2.2765 0.789 2.2435 0.559 2.2435 0.526 2.2765 0.559 2.3095"
             style="fill:#ffffff;fill-opacity:1" />
          <path
             d="M 1.514,1.9775 C 1.436,1.9405 0.991,1.7035 0.98,1.0075 c 0.082,-0.023 0.339,-0.104 0.534,-0.296 0.196,0.192 0.452,0.273 0.534,0.296 -0.011,0.703 -0.452,0.933 -0.534,0.97 z m -0.51,-0.487 c -0.044,0.141 -0.175,0.243 -0.33,0.243 -0.19,0 -0.345,-0.155 -0.345,-0.346 0,-0.19 0.155,-0.345 0.345,-0.345 0.098,0 0.186,0.042 0.249,0.107 0.014,0.131 0.042,0.244 0.081,0.341 z m 0.279,0.589 H 0.066 v -1.382 h 1.217 v 0.108 C 1.109,0.9105 0.942,0.9485 0.94,0.9485 l -0.026,0.032 0.002,0.076 c -0.068,-0.049 -0.151,-0.08 -0.242,-0.08 -0.226,0 -0.411,0.185 -0.411,0.411 0,0.227 0.185,0.412 0.411,0.412 0.16,0 0.299,-0.092 0.366,-0.225 0.071,0.145 0.161,0.25 0.243,0.323 z M 1.02,2.4075 H 0.329 c -0.145,0 -0.263,-0.117 -0.263,-0.263 h 1.217 c 0,0.146 -0.118,0.263 -0.263,0.263 z M 0.329,0.3685 H 1.02 c 0.145,0 0.263,0.118 0.263,0.264 H 0.066 c 0,-0.146 0.118,-0.264 0.263,-0.264 z m 1.759,0.58 c -0.003,0 -0.331,-0.075 -0.55,-0.307 H 1.49 l -0.141,0.121 v -0.13 c 0,-0.182 -0.148,-0.33 -0.329,-0.33 H 0.329 C 0.148,0.3025 0,0.4505 0,0.6325 v 1.512 c 0,0.182 0.148,0.329 0.329,0.329 H 1.02 c 0.181,0 0.329,-0.147 0.329,-0.329 v -0.192 l 0.153,0.092 0.012,0.002 0.012,-0.002 c 0.006,-0.002 0.588,-0.238 0.588,-1.064 z"
             id="Fill-1754"
             style="fill:#ffffff;fill-opacity:1" />
          <path
             d="M 1.215,1.1175 1.182,1.0845 1.149,1.1175 c 0,0.521 0.338,0.666 0.352,0.672 l 0.013,0.003 0.03,-0.021 -0.017,-0.043 C 1.523,1.7275 1.215,1.5955 1.215,1.1175"
             id="Fill-1755"
             style="fill:#ffffff;fill-opacity:1" />
        </g>
      </g>
    </g>
  </g>
</svg>
