<?xml version="1.0" encoding="UTF-8" standalone="no"?>
<svg
   xmlns:dc="http://purl.org/dc/elements/1.1/"
   xmlns:cc="http://creativecommons.org/ns#"
   xmlns:rdf="http://www.w3.org/1999/02/22-rdf-syntax-ns#"
   xmlns:svg="http://www.w3.org/2000/svg"
   xmlns="http://www.w3.org/2000/svg"
   xmlns:sodipodi="http://sodipodi.sourceforge.net/DTD/sodipodi-0.dtd"
   xmlns:inkscape="http://www.inkscape.org/namespaces/inkscape"
   inkscape:version="1.0 (4035a4f, 2020-05-01)"
   sodipodi:docname="same day.svg"
   id="svg154"
   version="1.1"
   viewBox="0 0 3 3"
   height="3px"
   width="3px">
  <metadata
     id="metadata160">
    <rdf:RDF>
      <cc:Work
         rdf:about="">
        <dc:format>image/svg+xml</dc:format>
        <dc:type
           rdf:resource="http://purl.org/dc/dcmitype/StillImage" />
      </cc:Work>
    </rdf:RDF>
  </metadata>
  <defs
     id="defs158" />
  <sodipodi:namedview
     inkscape:current-layer="svg154"
     inkscape:window-maximized="0"
     inkscape:window-y="23"
     inkscape:window-x="1650"
     inkscape:cy="1.5"
     inkscape:cx="0.57617188"
     inkscape:zoom="256"
     showgrid="false"
     id="namedview156"
     inkscape:window-height="1369"
     inkscape:window-width="2560"
     inkscape:pageshadow="2"
     inkscape:pageopacity="0"
     guidetolerance="10"
     gridtolerance="10"
     objecttolerance="10"
     borderopacity="1"
     bordercolor="#666666"
     pagecolor="#ffffff" />
  <title
     id="title144">Group 6</title>
  <g
     style="fill:#ffffff;fill-opacity:1"
     transform="matrix(1.3692844,0,0,1.3692844,-1.0436387,-0.19115944)"
     fill-rule="evenodd"
     fill="none"
     stroke-width="1"
     stroke="none"
     id="Page-1">
    <g
       style="fill:#ffffff;fill-opacity:1"
       fill="#0e0f12"
       transform="translate(-52,-90)"
       id="1066">
      <g
         style="fill:#ffffff;fill-opacity:1"
         transform="translate(52.774,90.1105)"
         id="Group-6">
        <polyline
           style="fill:#ffffff;fill-opacity:1"
           points="0.527 1.8805 0.49 1.9175 0.527 1.9535 0.564 1.9175 0.527 1.8805"
           id="Fill-4863" />
        <polyline
           style="fill:#ffffff;fill-opacity:1"
           points="1.644 1.8805 1.607 1.9175 1.644 1.9535 1.681 1.9175 1.644 1.8805"
           id="Fill-4864" />
        <path
           style="fill:#ffffff;fill-opacity:1"
           id="Fill-4865"
           d="M 2.105,1.5465 H 1.887 l -0.027,0.015 -0.003,0.031 0.073,0.178 0.031,0.02 h 0.144 v 0.01 L 2.028,1.8775 H 1.875 C 1.856,1.7665 1.76,1.6825 1.644,1.6825 c -0.116,0 -0.212,0.084 -0.231,0.195 H 1.221 v -0.771 l 0.112,-0.138 0.004,-0.005 0.001,-0.003 0.015,-0.028 v 0.149 c 0,0.102 0.083,0.185 0.185,0.185 h 0.37 l 0.145,0.047 0.052,0.208 z m 0,0.178 H 1.983 L 1.936,1.6135 h 0.169 z m -0.461,0.362 c -0.093,0 -0.169,-0.076 -0.169,-0.169 0,-0.093 0.076,-0.17 0.169,-0.17 0.093,0 0.169,0.077 0.169,0.17 0,0.093 -0.076,0.169 -0.169,0.169 z M 0.065,1.4205 v -0.729 h 0.134 c 0.006,0.097 0.033,0.189 0.079,0.269 l 0.001,0.003 0.004,0.005 0.217,0.216 0.003,0.003 0.004,0.002 c 0.089,0.051 0.192,0.08 0.301,0.08 0.109,0 0.212,-0.029 0.301,-0.08 l 0.004,-0.002 0.003,-0.003 0.04,-0.024 v 0.26 z m 0.001,0.304 v -0.111 h 0.049 l 0.047,0.111 z m 1.09,0.153 H 0.758 C 0.739,1.7665 0.643,1.6825 0.527,1.6825 c -0.116,0 -0.213,0.084 -0.232,0.195 H 0.143 L 0.065,1.8005 v -0.01 H 0.211 L 0.238,1.7765 0.241,1.7445 0.167,1.5675 0.137,1.5465 H 0.065 v -0.06 h 1.091 z m -0.629,0.209 c -0.093,0 -0.169,-0.076 -0.169,-0.169 0,-0.093 0.076,-0.17 0.169,-0.17 0.093,0 0.169,0.077 0.169,0.17 0,0.093 -0.076,0.169 -0.169,0.169 z m -0.019,-1.883 0.028,0.05 0.029,0.016 0.016,-0.004 0.012,-0.045 -0.028,-0.049 0.21,-0.056 v 0.056 l 0.033,0.033 0.033,-0.033 v -0.056 l 0.21,0.056 -0.028,0.049 0.012,0.045 0.017,0.004 0.028,-0.016 0.028,-0.05 0.154,0.155 -0.049,0.028 -0.012,0.045 0.028,0.017 0.017,-0.005 0.049,-0.029 0.056,0.211 H 1.295 l -0.033,0.033 0.033,0.033 h 0.056 l -0.056,0.21 -0.049,-0.029 -0.045,0.013 0.012,0.045 0.049,0.028 -0.154,0.155 -0.028,-0.05 -0.045,-0.012 -0.012,0.045 0.028,0.049 -0.21,0.056 V 1.1455 L 0.808,1.1125 0.775,1.1455 v 0.056 L 0.565,1.1455 0.593,1.0965 0.581,1.0515 0.536,1.0635 0.508,1.1135 0.354,0.9585 0.403,0.9305 0.415,0.8855 0.37,0.8725 0.321,0.9015 0.265,0.6915 H 0.321 L 0.354,0.6585 0.321,0.6255 H 0.265 L 0.321,0.4145 0.37,0.4435 0.387,0.4485 0.415,0.4315 0.403,0.3865 0.354,0.3585 Z m 1.196,0.564 c 0.107,0.112 0.158,0.343 0.175,0.434 H 1.538 l -0.119,-0.12 v -0.39 h 0.1 z M 2.1,1.2675 1.947,1.2025 C 1.932,1.1185 1.877,0.8555 1.751,0.7225 L 1.519,0.6255 H 1.417 C 1.412,0.5285 1.384,0.4365 1.338,0.3565 L 1.337,0.3535 1.334,0.3505 C 1.281,0.2605 1.206,0.1855 1.116,0.1325 L 1.113,0.1295 1.11,0.1285 C 1.021,0.0775 0.918,0.0475 0.808,0.0475 c -0.11,0 -0.213,0.03 -0.302,0.081 L 0.503,0.1295 0.5,0.1325 0.282,0.3505 0.279,0.3535 0.278,0.3565 c -0.046,0.08 -0.073,0.172 -0.079,0.269 H 0.033 L 0,0.6585 v 1.142 l 0.143,0.143 h 0.15 c 0.013,0.117 0.113,0.209 0.234,0.209 0.121,0 0.22,-0.092 0.234,-0.209 h 0.65 c 0.012,0.117 0.112,0.209 0.233,0.209 0.121,0 0.221,-0.092 0.233,-0.209 h 0.151 l 0.143,-0.143 v -0.278 z" />
        <polyline
           style="fill:#ffffff;fill-opacity:1"
           points="1.562 1.4205 1.386 1.4205 1.353 1.4525 1.386 1.4865 1.562 1.4865 1.595 1.4525 1.562 1.4205"
           id="Fill-4866" />
        <polyline
           style="fill:#ffffff;fill-opacity:1"
           points="0.512 0.5255 0.792 0.6875 0.808 0.6915 0.825 0.6875 0.841 0.6585 0.841 0.3405 0.808 0.3085 0.775 0.3405 0.775 0.6015 0.545 0.4685 0.5 0.4805 0.512 0.5255"
           id="Fill-4867" />
      </g>
    </g>
  </g>
</svg>
