<?xml version="1.0" encoding="UTF-8" standalone="no"?>
<svg
   xmlns:dc="http://purl.org/dc/elements/1.1/"
   xmlns:cc="http://creativecommons.org/ns#"
   xmlns:rdf="http://www.w3.org/1999/02/22-rdf-syntax-ns#"
   xmlns:svg="http://www.w3.org/2000/svg"
   xmlns="http://www.w3.org/2000/svg"
   xmlns:sodipodi="http://sodipodi.sourceforge.net/DTD/sodipodi-0.dtd"
   xmlns:inkscape="http://www.inkscape.org/namespaces/inkscape"
   inkscape:version="1.0 (4035a4f, 2020-05-01)"
   sodipodi:docname="tracking.svg"
   id="svg200"
   version="1.1"
   viewBox="0 0 3 3"
   height="3px"
   width="3px">
  <metadata
     id="metadata206">
    <rdf:RDF>
      <cc:Work
         rdf:about="">
        <dc:format>image/svg+xml</dc:format>
        <dc:type
           rdf:resource="http://purl.org/dc/dcmitype/StillImage" />
      </cc:Work>
    </rdf:RDF>
  </metadata>
  <defs
     id="defs204" />
  <sodipodi:namedview
     inkscape:current-layer="svg200"
     inkscape:window-maximized="1"
     inkscape:window-y="23"
     inkscape:window-x="1650"
     inkscape:cy="1.5"
     inkscape:cx="0.57617188"
     inkscape:zoom="256"
     showgrid="false"
     id="namedview202"
     inkscape:window-height="1369"
     inkscape:window-width="2560"
     inkscape:pageshadow="2"
     inkscape:pageopacity="0"
     guidetolerance="10"
     gridtolerance="10"
     objecttolerance="10"
     borderopacity="1"
     bordercolor="#666666"
     pagecolor="#ffffff" />
  <title
     id="title193">Group 8</title>
  <g
     style="fill:#ffffff;fill-opacity:1"
     transform="matrix(1.3633067,0,0,1.3633067,-1.0236997,0.02380081)"
     fill-rule="evenodd"
     fill="none"
     stroke-width="1"
     stroke="none"
     id="Page-1">
    <g
       style="fill:#ffffff;fill-opacity:1"
       fill="#0e0f12"
       transform="translate(-109,-95)"
       id="1066">
      <g
         style="fill:#ffffff;fill-opacity:1"
         transform="translate(109.766,94.999)"
         id="Group-8">
        <path
           style="fill:#ffffff;fill-opacity:1"
           id="Fill-5275"
           d="M 1.673,2.106 1.626,1.656 h 0.381 l 0.09,0.45 z M 0.131,1.81 H 0.527 L 0.496,2.106 H 0.072 Z M 0.322,0.855 H 0.629 L 0.587,1.251 H 0.243 Z M 0.924,1.121 0.809,1.251 H 0.653 L 0.694,0.855 H 0.765 C 0.816,0.953 0.874,1.046 0.924,1.121 Z M 1.085,0.066 c 0.209,0 0.379,0.17 0.379,0.379 0,0.268 -0.291,0.668 -0.379,0.785 -0.089,-0.117 -0.38,-0.517 -0.38,-0.785 0,-0.209 0.17,-0.379 0.38,-0.379 z M 1.474,0.855 1.516,1.251 H 1.36 L 1.244,1.121 C 1.296,1.046 1.354,0.953 1.404,0.855 Z M 1.926,1.251 H 1.583 L 1.541,0.855 H 1.847 Z M 1.589,1.316 H 1.94 L 1.994,1.591 H 1.619 Z M 1.576,1.81 1.607,2.106 H 0.562 L 0.593,1.81 Z M 1.059,1.305 1.085,1.316 1.11,1.305 1.206,1.177 1.298,1.283 C 1.298,1.355 1.2,1.415 1.085,1.415 0.968,1.415 0.871,1.355 0.871,1.283 L 0.963,1.177 Z M 0.23,1.316 H 0.809 C 0.831,1.41 0.944,1.48 1.085,1.48 1.225,1.48 1.338,1.41 1.36,1.316 H 1.524 L 1.569,1.744 H 0.144 Z M 1.906,0.816 1.874,0.79 H 1.436 C 1.491,0.673 1.53,0.551 1.53,0.445 1.53,0.2 1.33,0 1.085,0 0.839,0 0.639,0.2 0.639,0.445 c 0,0.106 0.039,0.228 0.094,0.345 H 0.295 L 0.263,0.816 0,2.133 0.006,2.16 0.032,2.172 H 2.137 L 2.163,2.16 2.17,2.133 Z" />
        <path
           style="fill:#ffffff;fill-opacity:1"
           id="Fill-5276"
           d="m 1.085,0.618 c -0.093,0 -0.168,-0.076 -0.168,-0.168 0,-0.093 0.075,-0.169 0.168,-0.169 0.092,0 0.168,0.076 0.168,0.169 0,0.092 -0.076,0.168 -0.168,0.168 z M 1.318,0.45 c 0,-0.129 -0.105,-0.234 -0.233,-0.234 -0.129,0 -0.234,0.105 -0.234,0.234 0,0.128 0.105,0.234 0.234,0.234 0.128,0 0.233,-0.106 0.233,-0.234 z" />
      </g>
    </g>
  </g>
</svg>
