<svg xmlns="http://www.w3.org/2000/svg" xmlns:xlink="http://www.w3.org/1999/xlink" version="1.1" id="Layer_1" x="0px" y="0px" width="91px" height="70px" viewBox="0 0 91 70" style="enable-background:new 0 0 91 70;" xml:space="preserve">
<style type="text/css">
	.st0{fill:#F1F1F1;}
	.st1{fill:#B4B9BE;}
	.st2{fill:#23282D;}
	.st3{fill:#00B9EB;}
	.st4{fill:#32373C;}
	.st5{opacity:0.3;fill:#00B9EB;enable-background:new    ;}
</style>
<g>
	<g>
		<path class="st0" d="M13,69.5c-3,0-5.5-2.5-5.5-5.5V6c0-3,2.5-5.5,5.5-5.5h72c3,0,5.5,2.5,5.5,5.5v58c0,3-2.5,5.5-5.5,5.5H13z"/>
		<path class="st1" d="M85,1c2.8,0,5,2.2,5,5v58c0,2.8-2.2,5-5,5H13c-2.8,0-5-2.2-5-5V6c0-2.8,2.2-5,5-5H85 M85,0H13    C9.7,0,7,2.7,7,6v58c0,3.3,2.7,6,6,6h72c3.3,0,6-2.7,6-6V6C91,2.7,88.3,0,85,0L85,0z"/>
	</g>
	<path class="st2" d="M49.3,16.2L49.3,16.2c-2.5,0-4.5-2-4.5-4.5l0,0c0-2.5,2-4.5,4.5-4.5l0,0c2.5,0,4.5,2,4.5,4.5l0,0   C53.8,14.2,51.8,16.2,49.3,16.2z"/>
	<rect x="14" y="20" class="st1" width="33" height="7"/>
	<rect x="51" y="20" class="st1" width="34" height="7"/>
	<rect x="14" y="30" class="st1" width="33" height="7"/>
	<rect x="14" y="40" class="st1" width="71" height="13"/>
	<rect x="41" y="57" class="st3" width="17" height="6"/>
	<rect x="51" y="30" class="st1" width="34" height="7"/>
</g>
<g>
	<path class="st4" d="M19.9,45.9c-0.3-0.3-0.5-0.6-0.8-0.9l-5.2,5c-0.3,0.3-0.2,0.9,0.2,1.4s1.1,0.6,1.4,0.3l5.2-5   C20.5,46.4,20.2,46.1,19.9,45.9z"/>
	<ellipse transform="matrix(0.7235 -0.6904 0.6904 0.7235 -17.1809 30.4908)" class="st5" cx="29.5" cy="36.7" rx="13.1" ry="13"/>
	<g>
		<path class="st2" d="M29.6,22c-3.7,0-7.4,1.4-10.2,4.1c-5.9,5.6-6.2,15-0.6,20.8c2.9,3,6.7,4.5,10.6,4.5c3.7,0,7.4-1.4,10.2-4.1    c5.9-5.6,6.2-15,0.6-20.8C37.3,23.5,33.4,22,29.6,22L29.6,22z M29.4,49.8c-3.4,0-6.8-1.3-9.4-4c-5-5.2-4.7-13.4,0.5-18.4    c2.5-2.4,5.8-3.6,9.1-3.6c3.4,0,6.8,1.3,9.4,4c5,5.2,4.7,13.4-0.5,18.4C35.9,48.6,32.6,49.8,29.4,49.8L29.4,49.8z"/>
	</g>
	<path class="st2" d="M1.1,64.1l-0.6-0.6c-0.6-0.6-0.2-2,0.9-3l15-14.1c1.1-1,2.5-1.4,3.1-0.7l0.6,0.6c0.6,0.6,0.2,2-0.9,3l-15,14.1   C3.1,64.4,1.7,64.7,1.1,64.1z"/>
	<path class="st4" d="M39.5,27.2c-5.3-5.5-14-5.7-19.6-0.4s-5.8,14.1-0.5,19.6s14,5.7,19.6,0.4C44.5,41.4,44.8,32.7,39.5,27.2z    M20,45.8c-5-5.2-4.7-13.4,0.5-18.4s13.5-4.8,18.4,0.4c5,5.2,4.7,13.4-0.5,18.4C33.2,51.1,25,51,20,45.8z"/>
</g>
</svg>