<svg xmlns="http://www.w3.org/2000/svg" xmlns:xlink="http://www.w3.org/1999/xlink" version="1.1" id="Layer_1" x="0px" y="0px" width="100px" height="70px" viewBox="0 0 100 70" style="enable-background:new 0 0 100 70;" xml:space="preserve">
<style type="text/css">
	.st0{fill:#F1F1F1;}
	.st1{fill:#B4B9BE;}
	.st2{fill:none;stroke:#9EA3A8;stroke-width:2;stroke-miterlimit:10;}
	.st3{fill:#32373C;}
	.st4{fill:#FF5252;}
	.st5{fill:#00B9EB;}
	.st6{fill:#23282D;}
	.st7{opacity:0.3;fill:#00B9EB;enable-background:new    ;}
</style>
<g>
	<g>
		<path class="st0" d="M6,69.5c-3,0-5.5-2.5-5.5-5.5V6C0.5,3,3,0.5,6,0.5h72c3,0,5.5,2.5,5.5,5.5v58c0,3-2.5,5.5-5.5,5.5H6z"/>
		<path class="st1" d="M78,1c2.8,0,5,2.2,5,5v58c0,2.8-2.2,5-5,5H6c-2.8,0-5-2.2-5-5V6c0-2.8,2.2-5,5-5H78 M78,0H6C2.7,0,0,2.7,0,6    v58c0,3.3,2.7,6,6,6h72c3.3,0,6-2.7,6-6V6C84,2.7,81.3,0,78,0L78,0z"/>
	</g>
	<polyline class="st2" points="13,57 20,41 22,41 37,51 38,51 47,22 48,22 63,36 64,36 72,15  "/>
	<circle class="st3" cx="12.5" cy="57.5" r="3.5"/>
	<circle class="st4" cx="20.5" cy="40.5" r="3.5"/>
	<circle class="st3" cx="47.5" cy="21.5" r="3.5"/>
	<circle class="st5" cx="37.5" cy="50.5" r="3.5"/>
	<circle class="st4" cx="63.5" cy="35.5" r="3.5"/>
	<circle class="st5" cx="72.5" cy="14.5" r="3.5"/>
</g>
<g>
	<path class="st3" d="M80.3,49.5c0.3-0.3,0.5-0.6,0.8-0.9l5.2,5c0.3,0.3,0.2,0.9-0.2,1.4c-0.4,0.5-1.1,0.6-1.4,0.3l-5.2-5   C79.7,50.1,80,49.8,80.3,49.5z"/>
	<path class="st6" d="M99,67.8l0.6-0.6c0.6-0.6,0.2-2-0.9-3l-15-14.1c-1.1-1-2.5-1.4-3.1-0.7L80,50c-0.6,0.6-0.2,2,0.9,3L96,67   C97.1,68.1,98.4,68.4,99,67.8z"/>
	<ellipse transform="matrix(0.6904 -0.7235 0.7235 0.6904 -7.3457 63.6496)" class="st7" cx="70.7" cy="40.4" rx="13" ry="13.1"/>
	<g>
		<path class="st6" d="M70.6,25.7c-3.9,0-7.7,1.5-10.6,4.5c-5.6,5.9-5.4,15.2,0.6,20.8c2.9,2.7,6.6,4.1,10.2,4.1    c3.9,0,7.7-1.5,10.6-4.5c5.6-5.9,5.4-15.2-0.6-20.8C78,27.1,74.3,25.7,70.6,25.7L70.6,25.7z M70.8,53.5c-3.2,0-6.5-1.2-9.1-3.6    c-5.2-5-5.4-13.2-0.5-18.4c2.5-2.7,6-4,9.4-4c3.2,0,6.5,1.2,9.1,3.6c5.2,5,5.4,13.2,0.5,18.4C77.6,52.1,74.2,53.5,70.8,53.5    L70.8,53.5z"/>
	</g>
	<path class="st3" d="M61.2,50.4c5.6,5.3,14.3,5.1,19.6-0.4s5-14.3-0.5-19.6c-5.6-5.3-14.3-5.1-19.6,0.4   C55.4,36.4,55.6,45.1,61.2,50.4z M61.7,49.8c-5.2-5-5.4-13.2-0.5-18.4c5-5.2,13.2-5.4,18.4-0.4s5.4,13.2,0.5,18.4   S67,54.8,61.7,49.8z"/>
</g>
</svg>