<svg xmlns="http://www.w3.org/2000/svg" xmlns:xlink="http://www.w3.org/1999/xlink" version="1.1" id="Layer_1" x="0px" y="0px" width="74px" height="70px" viewBox="0 0 74 70" style="enable-background:new 0 0 74 70;" xml:space="preserve">
<style type="text/css">
	.st0{fill:#9EA3A8;}
	.st1{fill:#00B9EB;}
	.st2{fill:#FF5252;}
	.st3{fill:none;stroke:#B4B9BE;stroke-width:2;stroke-miterlimit:10;stroke-dasharray:2;}
	.st4{fill:#23282D;}
	.st5{fill:#FFFFFF;}
	.st6{fill:#32373C;}
</style>
<g>
	<g>
		<rect x="41" y="11" class="st0" width="3" height="8"/>
		<rect x="27" class="st0" width="1" height="21"/>
		<rect x="27" y="21" class="st0" width="24" height="1"/>
		<rect x="36" y="7" class="st1" width="3" height="12"/>
		<rect x="30" y="14" class="st2" width="3" height="5"/>
		<rect x="46" y="1" class="st1" width="3" height="18"/>
	</g>
	<line class="st3" x1="38.9" y1="27.6" x2="38.9" y2="42.6"/>
	<line class="st3" x1="29.9" y1="27.6" x2="21.2" y2="37.6"/>
	<line class="st3" x1="48.9" y1="27.6" x2="57.2" y2="37.2"/>
	<g>
		<g>
			<path class="st4" d="M23.8,44.3c0,1.8-0.8,3.5-2,4.7c-0.4,0.4-0.9,0.8-1.4,1.1c-0.6-0.1-1.3-0.1-2-0.1h-2.7c-0.7,0-1.3,0-2,0.1     c-2-1.2-3.4-3.3-3.4-5.8c0-1.9,0.8-3.5,2-4.7s2.9-2,4.7-2C20.8,37.6,23.8,40.6,23.8,44.3z"/>
			<path class="st5" d="M18.4,53h-2.7c-0.8,0-1.7,0.1-2.4,0.3c1.2,0.5,2.4,0.8,3.8,0.8c1.3,0,2.6-0.3,3.8-0.8     C20.1,53.1,19.3,53,18.4,53z"/>
		</g>
		<g>
			<path class="st4" d="M28.6,60c-1.1,0.9-2,1.9-2.8,3H5.1c0-4.8,3.5-8.7,8.2-9.7c0.8-0.2,1.6-0.3,2.4-0.3h2.7     c0.8,0,1.7,0.1,2.4,0.3C24.5,54.1,27.5,56.6,28.6,60z"/>
			<path class="st6" d="M30.6,63v1.5h-2.2c0.6-0.9,1.3-1.6,2.1-2.2C30.6,62.5,30.6,62.8,30.6,63z"/>
			<path class="st5" d="M32,61.3c-0.5,0.3-1,0.6-1.4,0.9c-0.8,0.6-1.5,1.4-2.1,2.2c-0.3,0.5-0.6,1-0.9,1.5h4.5v-3     C32.1,62.4,32,61.9,32,61.3z"/>
		</g>
	</g>
	<g>
		<g>
			<path class="st4" d="M67.3,44.3c0,1.8-0.8,3.5-2,4.7c-0.4,0.4-0.9,0.8-1.4,1.1C63.3,50,62.7,50,62,50h-2.7c-0.7,0-1.3,0-2,0.1     c-2-1.2-3.4-3.3-3.4-5.8c0-1.9,0.8-3.5,2-4.7s2.9-2,4.7-2C64.4,37.6,67.3,40.6,67.3,44.3z"/>
			<path class="st5" d="M62,53h-2.7c-0.8,0-1.7,0.1-2.4,0.3c1.1,0.5,2.4,0.8,3.8,0.8c1.3,0,2.6-0.3,3.8-0.8C63.7,53.1,62.8,53,62,53     z"/>
		</g>
		<g>
			<path class="st6" d="M49,64.5h-1.8V63c0-0.2,0-0.3,0-0.4C47.8,63.1,48.5,63.8,49,64.5z"/>
			<path class="st4" d="M72.7,63H51.5c-0.7-1-1.5-1.9-2.5-2.7c1-3.5,4.1-6.2,7.8-7c0.8-0.2,1.6-0.3,2.4-0.3H62     c0.8,0,1.7,0.1,2.4,0.3C69.2,54.3,72.7,58.2,72.7,63z"/>
			<path class="st5" d="M49,64.5c-0.5-0.7-1.1-1.4-1.8-1.9c-0.4-0.4-0.9-0.7-1.4-1c-0.1,0.5-0.1,1-0.1,1.5v3h4.2     C49.6,65.5,49.3,65,49,64.5z"/>
		</g>
	</g>
	<g>
		<g>
			<path class="st4" d="M45.4,51.3c0,1.9-0.8,3.5-2,4.7c-0.4,0.4-0.9,0.8-1.4,1.1C41.3,57,40.7,57,40,57h-2.7c-0.7,0-1.3,0-2,0.1     c-2-1.2-3.4-3.3-3.4-5.8c0-1.8,0.8-3.5,2-4.7s2.9-2,4.7-2C42.4,44.6,45.4,47.6,45.4,51.3z"/>
			<path class="st5" d="M40,60h-2.7c-0.8,0-1.6,0.1-2.4,0.3c1.2,0.5,2.4,0.8,3.8,0.8s2.6-0.3,3.8-0.8C41.7,60.1,40.9,60,40,60z"/>
		</g>
		<g>
			<path class="st4" d="M50.7,70h-24c0-1.4,0.3-2.8,0.9-4c0.2-0.5,0.5-1,0.9-1.5c0.6-0.9,1.3-1.6,2.1-2.2c0.4-0.3,0.9-0.7,1.4-0.9     c0.9-0.5,1.9-0.9,2.9-1.1c0.8-0.2,1.6-0.3,2.4-0.3H40c0.8,0,1.7,0.1,2.4,0.3c1.2,0.3,2.3,0.7,3.3,1.3c0.5,0.3,1,0.6,1.4,1     c0.7,0.6,1.3,1.2,1.8,1.9c0.3,0.5,0.6,1,0.9,1.5C50.4,67.2,50.7,68.6,50.7,70z"/>
		</g>
	</g>
</g>
</svg>