<svg xmlns="http://www.w3.org/2000/svg" xmlns:xlink="http://www.w3.org/1999/xlink" version="1.1" id="Layer_1" x="0px" y="0px" width="116px" height="70px" viewBox="0 0 116 70" style="enable-background:new 0 0 116 70;" xml:space="preserve">
<style type="text/css">
	.st0{fill:#23282D;}
	.st1{fill-rule:evenodd;clip-rule:evenodd;fill:#23282D;}
	.st2{fill-rule:evenodd;clip-rule:evenodd;fill:#9EA3A8;}
</style>
<g>
	<g>
		<path class="st0" d="M66.1,3.9c-2.1-2-4.9-3.3-8.1-3.3s-6,1.3-8.1,3.3s-3.3,4.9-3.3,8.1s1.3,6,3.3,8.1s4.9,3.3,8.1,3.3    s6-1.3,8.1-3.3s3.3-4.9,3.3-8.1S68.2,6,66.1,3.9z M65.7,19.7c-2,2-4.7,3.2-7.7,3.2s-5.7-1.2-7.7-3.2S47.1,15,47.1,12    s1.2-5.7,3.2-7.7S55,1.1,58,1.1s5.7,1.2,7.7,3.2c2,2,3.2,4.7,3.2,7.7S67.7,17.8,65.7,19.7z"/>
		<path class="st0" d="M67.8,11.9c0-5.4-4.4-9.7-9.8-9.7s-9.8,4.3-9.8,9.7l4.5-4.5l1.5,1.5l-3.3,3.3h14.2l-3.3-3.3l1.5-1.5    L67.8,11.9z M58,10.3l-4.2-4.4h2.8V3.7c0-0.6,0.6-1,1.4-1c0.8,0,1.4,0.5,1.4,1v2.2h2.8L58,10.3z"/>
		<path class="st0" d="M59.2,17.6c-0.2-0.1-0.5-0.3-0.8-0.4s-0.5-0.2-0.6-0.3s-0.3-0.2-0.4-0.3c-0.1-0.1-0.1-0.2-0.1-0.3    c0-0.1,0-0.2,0.1-0.3c0.1-0.1,0.2-0.2,0.3-0.2c0.1-0.1,0.3-0.1,0.6-0.1c0.2,0,0.3,0,0.5,0c0.1,0,0.3,0.1,0.4,0.1    c0.1,0,0.2,0.1,0.3,0.1l0.2-0.8c-0.1-0.1-0.3-0.1-0.6-0.2c-0.2,0-0.4-0.1-0.7-0.1V14h-0.7v0.8c-0.1,0-0.2,0-0.3,0.1    c-0.3,0.1-0.5,0.2-0.7,0.3s-0.3,0.3-0.4,0.5c-0.1,0.2-0.1,0.4-0.1,0.6s0.1,0.5,0.2,0.7c0.1,0.2,0.3,0.3,0.6,0.5    c0.2,0.1,0.5,0.3,0.9,0.4c0.2,0.1,0.5,0.2,0.6,0.2s0.3,0.2,0.3,0.3c0.1,0.1,0.1,0.2,0.1,0.3c0,0.1,0,0.3-0.1,0.4s-0.2,0.2-0.4,0.2    c-0.2,0.1-0.3,0.1-0.6,0.1c-0.2,0-0.4,0-0.5,0c-0.2,0-0.3-0.1-0.5-0.1c-0.1,0-0.3-0.1-0.4-0.2L56.1,20c0.1,0.1,0.2,0.1,0.4,0.2    c0.2,0,0.3,0.1,0.6,0.1c0.2,0,0.4,0,0.6,0l0,0v0.8h0.7v-0.9c0.1,0,0.2,0,0.2-0.1c0.3-0.1,0.5-0.2,0.7-0.3c0.2-0.1,0.3-0.3,0.4-0.5    c0.1-0.2,0.1-0.4,0.1-0.6s-0.1-0.5-0.2-0.7C59.6,17.9,59.5,17.7,59.2,17.6z"/>
	</g>
	<g>
		<path class="st0" d="M1.8,34.3c0,0.2,0,0.5,0.1,0.7s0.2,0.4,0.3,0.6c0.1,0.2,0.3,0.3,0.5,0.4c0.2,0.1,0.5,0.1,0.7,0.1    c0.4,0,0.7-0.1,1-0.3c0.2-0.2,0.4-0.4,0.5-0.8h1.3c-0.1,0.3-0.2,0.6-0.4,0.9c-0.2,0.3-0.4,0.5-0.6,0.7C5,36.8,4.7,36.9,4.4,37    c-0.3,0.1-0.6,0.1-1,0.1c-0.5,0-0.9-0.1-1.3-0.2c-0.4-0.2-0.7-0.4-0.9-0.7c-0.3-0.3-0.5-0.6-0.6-1s-0.2-0.8-0.2-1.3    c0-0.4,0.1-0.9,0.2-1.2c0.1-0.4,0.3-0.7,0.6-1s0.6-0.5,0.9-0.7s0.8-0.3,1.2-0.3c0.5,0,0.9,0.1,1.3,0.3c0.4,0.2,0.7,0.5,1,0.8    c0.2,0.3,0.4,0.7,0.6,1.1c0.1,0.4,0.1,0.9,0.1,1.3L1.8,34.3L1.8,34.3z M4.9,33.4c0-0.2-0.1-0.4-0.1-0.6c-0.1-0.2-0.2-0.4-0.3-0.5    C4.4,32.1,4.2,32,4,31.9c-0.2-0.1-0.4-0.1-0.6-0.1c-0.2,0-0.5,0-0.7,0.1s-0.4,0.2-0.5,0.3c-0.1,0.1-0.2,0.3-0.3,0.5    c-0.1,0.2-0.1,0.4-0.1,0.6h3.1V33.4z"/>
		<path class="st0" d="M12.5,35.6c0,0.2,0,0.3,0.1,0.3c0,0.1,0.1,0.1,0.3,0.1H13c0,0,0.1,0,0.2,0v1c0,0-0.1,0-0.2,0.1    s-0.1,0-0.2,0.1c-0.1,0-0.2,0-0.2,0c-0.1,0-0.1,0-0.2,0c-0.3,0-0.5-0.1-0.7-0.2c-0.2-0.1-0.3-0.3-0.3-0.6c-0.3,0.3-0.6,0.5-1,0.6    s-0.8,0.2-1.1,0.2s-0.6,0-0.8-0.1S8,36.9,7.8,36.8s-0.3-0.3-0.5-0.6C7,36,7,35.7,7,35.4c0-0.4,0-0.7,0.2-0.9    c0.1-0.2,0.3-0.4,0.6-0.6c0.2-0.1,0.5-0.2,0.8-0.3s0.6-0.1,0.9-0.1c0.2,0,0.5-0.1,0.7-0.1s0.4-0.1,0.6-0.1c0.2,0,0.3-0.1,0.4-0.2    s0.1-0.2,0.1-0.5c0-0.2,0-0.3-0.1-0.4c-0.1-0.1-0.2-0.2-0.3-0.3c-0.1-0.1-0.3-0.1-0.4-0.1s-0.3,0-0.4,0c-0.4,0-0.7,0.1-0.9,0.2    c-0.2,0.2-0.4,0.4-0.4,0.7H7.2c0-0.4,0.1-0.7,0.3-1c0.2-0.3,0.4-0.5,0.6-0.6C8.4,31,8.7,30.9,9,30.8s0.7-0.1,1-0.1s0.6,0,0.9,0.1    c0.3,0.1,0.6,0.2,0.8,0.3c0.2,0.1,0.4,0.3,0.6,0.6s0.2,0.5,0.2,0.8V35.6L12.5,35.6z M11.1,33.9c-0.2,0.1-0.5,0.2-0.8,0.2    s-0.6,0.1-0.9,0.1c-0.1,0-0.3,0.1-0.4,0.1c-0.1,0-0.2,0.1-0.3,0.2c-0.1,0.1-0.2,0.2-0.2,0.3c-0.1,0.1-0.1,0.3-0.1,0.5    c0,0.1,0,0.3,0.1,0.4c0.1,0.1,0.2,0.2,0.3,0.2C9,36,9.1,36.1,9.2,36.1c0.1,0,0.3,0,0.4,0c0.1,0,0.3,0,0.5-0.1    c0.2,0,0.3-0.1,0.5-0.2c0.2-0.1,0.3-0.2,0.4-0.4s0.2-0.3,0.2-0.5L11.1,33.9L11.1,33.9z"/>
		<path class="st0" d="M15,35c0,0.4,0.2,0.7,0.5,0.8c0.3,0.2,0.6,0.2,0.9,0.2c0.1,0,0.3,0,0.4,0c0.2,0,0.3-0.1,0.5-0.1    s0.3-0.1,0.3-0.2s0.1-0.2,0.1-0.4s-0.1-0.3-0.2-0.4c-0.1-0.1-0.3-0.2-0.5-0.3s-0.4-0.1-0.6-0.2c-0.2,0-0.5-0.1-0.7-0.2    c-0.2-0.1-0.5-0.1-0.7-0.2c-0.2-0.1-0.5-0.2-0.6-0.3c-0.2-0.1-0.3-0.3-0.5-0.5c-0.1-0.2-0.2-0.5-0.2-0.8s0.1-0.6,0.2-0.8    s0.4-0.4,0.6-0.6c0.2-0.1,0.5-0.2,0.8-0.3c0.3-0.1,0.6-0.1,0.9-0.1c0.3,0,0.6,0,0.9,0.1s0.6,0.2,0.8,0.3c0.2,0.1,0.4,0.3,0.6,0.6    c0.2,0.2,0.2,0.5,0.3,0.9h-1.4c-0.1-0.3-0.2-0.6-0.5-0.7c-0.2-0.1-0.5-0.2-0.8-0.2c-0.1,0-0.2,0-0.3,0s-0.2,0-0.4,0.1    c-0.1,0-0.2,0.1-0.3,0.2S15,32.1,15,32.2c0,0.2,0.1,0.3,0.2,0.4c0.1,0.1,0.3,0.2,0.5,0.3s0.4,0.1,0.6,0.2c0.2,0,0.5,0.1,0.7,0.2    c0.2,0.1,0.5,0.1,0.7,0.2c0.2,0.1,0.5,0.2,0.6,0.3c0.2,0.1,0.3,0.3,0.5,0.5c0.1,0.2,0.2,0.5,0.2,0.8c0,0.4-0.1,0.7-0.2,0.9    s-0.4,0.5-0.7,0.6c-0.3,0.2-0.6,0.3-0.9,0.3c-0.3,0.1-0.7,0.1-1,0.1c-0.4,0-0.8,0-1.1-0.1s-0.6-0.2-0.9-0.4    c-0.2-0.2-0.4-0.4-0.6-0.7c-0.1-0.3-0.2-0.6-0.2-0.9L15,35L15,35z"/>
		<path class="st0" d="M19.5,30.8H21l1.6,4.6l0,0l1.6-4.6h1.4l-2.4,6.5c-0.1,0.3-0.2,0.6-0.3,0.8s-0.2,0.5-0.4,0.7    c-0.2,0.2-0.3,0.3-0.6,0.5c-0.2,0.1-0.5,0.2-0.9,0.2c-0.3,0-0.6,0-0.9-0.1v-1.1c0.1,0,0.2,0,0.3,0.1c0.1,0,0.2,0,0.3,0    c0.2,0,0.3,0,0.4-0.1c0.1,0,0.2-0.1,0.3-0.2c0.1-0.1,0.1-0.2,0.2-0.3c0-0.1,0.1-0.2,0.1-0.3l0.2-0.5L19.5,30.8z"/>
		<path class="st0" d="M31.1,37v-1.2l0,0c-0.1,0.2-0.2,0.4-0.3,0.6c-0.2,0.2-0.3,0.3-0.5,0.4c-0.2,0.1-0.4,0.2-0.6,0.3    s-0.5,0.1-0.7,0.1c-0.5,0-0.9-0.1-1.2-0.3c-0.3-0.2-0.6-0.4-0.9-0.7c-0.2-0.3-0.4-0.6-0.5-1s-0.2-0.8-0.2-1.2s0.1-0.9,0.2-1.2    c0.1-0.4,0.3-0.7,0.5-1s0.5-0.5,0.9-0.7c0.3-0.2,0.8-0.3,1.2-0.3c0.2,0,0.5,0,0.7,0.1s0.4,0.1,0.6,0.3s0.4,0.3,0.5,0.4    c0.1,0.2,0.3,0.4,0.3,0.6l0,0v-3.5h0.8V37H31.1L31.1,37z M26.9,34.9c0.1,0.3,0.2,0.6,0.3,0.8c0.2,0.2,0.4,0.5,0.6,0.6    c0.2,0.2,0.6,0.2,0.9,0.2c0.4,0,0.7-0.1,1-0.2c0.3-0.2,0.5-0.3,0.7-0.6c0.2-0.2,0.3-0.5,0.4-0.8s0.1-0.6,0.1-0.9    c0-0.3,0-0.6-0.1-0.9s-0.2-0.6-0.4-0.8c-0.2-0.2-0.4-0.5-0.7-0.6c-0.3-0.2-0.6-0.2-1-0.2c-0.3,0-0.7,0.1-0.9,0.2    c-0.2,0.2-0.5,0.3-0.6,0.6c-0.2,0.2-0.3,0.5-0.3,0.8c-0.1,0.3-0.1,0.6-0.1,0.9C26.8,34.2,26.9,34.5,26.9,34.9z"/>
		<path class="st0" d="M33.9,28.5v1.2h-0.8v-1.2C33.2,28.5,33.9,28.5,33.9,28.5z M33.9,30.8V37h-0.8v-6.1h0.8V30.8z"/>
		<path class="st0" d="M40.4,37.7c-0.1,0.4-0.3,0.7-0.5,0.9s-0.5,0.5-0.8,0.6s-0.8,0.2-1.3,0.2c-0.3,0-0.6,0-0.9-0.1    s-0.6-0.2-0.8-0.3s-0.4-0.3-0.6-0.6c-0.2-0.2-0.2-0.5-0.3-0.8H36c0,0.2,0.1,0.4,0.2,0.6c0.1,0.2,0.2,0.3,0.4,0.4    c0.2,0.1,0.3,0.2,0.5,0.2s0.4,0.1,0.6,0.1c0.7,0,1.2-0.2,1.5-0.6c0.3-0.4,0.5-1,0.5-1.7v-0.8l0,0c-0.2,0.4-0.4,0.7-0.8,0.9    c-0.3,0.2-0.7,0.3-1.2,0.3s-0.9-0.1-1.3-0.2c-0.3-0.2-0.6-0.4-0.9-0.7c-0.2-0.3-0.4-0.6-0.5-1s-0.2-0.8-0.2-1.2s0.1-0.8,0.2-1.2    s0.3-0.7,0.5-1s0.5-0.5,0.9-0.7c0.3-0.2,0.7-0.2,1.2-0.2c0.2,0,0.5,0,0.7,0.1s0.4,0.1,0.6,0.3c0.2,0.1,0.3,0.2,0.5,0.4    c0.1,0.1,0.2,0.3,0.3,0.5l0,0V31h0.8v5.7C40.6,36.9,40.5,37.4,40.4,37.7z M38.7,36.1c0.2-0.1,0.5-0.3,0.6-0.6    c0.2-0.2,0.3-0.5,0.4-0.8c0.1-0.3,0.1-0.6,0.1-0.9s0-0.6-0.1-0.9s-0.2-0.6-0.3-0.8c-0.2-0.2-0.4-0.5-0.6-0.6    c-0.2-0.1-0.6-0.2-0.9-0.2c-0.3,0-0.7,0.1-0.9,0.2s-0.5,0.3-0.6,0.6c-0.2,0.2-0.3,0.5-0.4,0.8s-0.1,0.6-0.1,0.9    c0,0.3,0,0.6,0.1,0.9s0.2,0.6,0.4,0.8s0.4,0.4,0.6,0.6c0.2,0.1,0.6,0.2,0.9,0.2C38.2,36.3,38.5,36.2,38.7,36.1z"/>
		<path class="st0" d="M42.8,28.5v1.2H42v-1.2H42.8z M42.8,30.8V37H42v-6.1h0.8V30.8z"/>
		<path class="st0" d="M46.7,30.8v0.6h-1.2v4.1c0,0.2,0,0.4,0.1,0.6s0.2,0.2,0.5,0.2c0.2,0,0.4,0,0.6,0V37c-0.1,0-0.2,0-0.3,0    s-0.2,0-0.3,0c-0.5,0-0.9-0.1-1-0.3c-0.2-0.2-0.3-0.6-0.3-1.1v-4.2h-1.1v-0.6h1.1V29h0.8v1.8H46.7z"/>
		<path class="st0" d="M47.9,31.8c0.1-0.3,0.3-0.5,0.5-0.6c0.2-0.2,0.5-0.3,0.8-0.4s0.6-0.1,1-0.1c0.3,0,0.5,0,0.8,0.1    s0.5,0.1,0.7,0.3c0.2,0.1,0.4,0.3,0.5,0.6c0.1,0.3,0.2,0.6,0.2,1V36c0,0.3,0.1,0.5,0.5,0.5c0.1,0,0.2,0,0.2,0v0.6    c-0.1,0-0.2,0-0.2,0c-0.1,0-0.1,0-0.3,0s-0.3,0-0.5-0.1c-0.1-0.1-0.2-0.1-0.3-0.2c-0.1-0.1-0.1-0.2-0.1-0.3s0-0.3,0-0.4l0,0    c-0.1,0.2-0.3,0.4-0.4,0.5c-0.1,0.2-0.3,0.3-0.5,0.4c-0.2,0.1-0.4,0.2-0.6,0.2s-0.5,0.1-0.8,0.1s-0.6,0-0.8-0.1s-0.5-0.2-0.7-0.3    s-0.3-0.3-0.5-0.6c-0.1-0.2-0.2-0.5-0.2-0.8c0-0.4,0.1-0.8,0.3-1s0.5-0.4,0.8-0.6c0.3-0.1,0.7-0.2,1.1-0.3    c0.4-0.1,0.8-0.1,1.2-0.1c0.2,0,0.3,0,0.4-0.1c0.1,0,0.2-0.1,0.3-0.1c0.1-0.1,0.1-0.1,0.2-0.2c0-0.1,0.1-0.2,0.1-0.4    s0-0.5-0.1-0.6s-0.2-0.3-0.3-0.4s-0.3-0.2-0.5-0.2s-0.4-0.1-0.6-0.1c-0.5,0-0.9,0.1-1.2,0.3s-0.5,0.6-0.5,1.1h-0.8    C47.7,32.4,47.8,32.1,47.9,31.8z M51.6,33.6c0,0.1-0.1,0.1-0.3,0.2c-0.1,0-0.2,0.1-0.3,0.1C50.7,34,50.3,34,50,34    s-0.7,0.1-0.9,0.2c-0.3,0.1-0.5,0.2-0.7,0.4s-0.3,0.4-0.3,0.7c0,0.2,0,0.4,0.1,0.5s0.2,0.3,0.3,0.4c0.1,0.1,0.3,0.2,0.5,0.2    c0.2,0.1,0.3,0.1,0.5,0.1c0.3,0,0.6,0,0.8-0.1c0.3-0.1,0.5-0.2,0.7-0.4s0.3-0.4,0.5-0.6c0.1-0.2,0.2-0.5,0.2-0.8L51.6,33.6    L51.6,33.6L51.6,33.6z"/>
		<path class="st0" d="M54.7,28.5V37h-0.8v-8.5H54.7z"/>
		<path class="st0" d="M61.9,37h-1.3v-0.8l0,0c-0.2,0.3-0.5,0.6-0.8,0.8s-0.7,0.2-1.1,0.2c-0.5,0-0.9-0.1-1.3-0.3    c-0.4-0.2-0.7-0.4-0.9-0.7s-0.4-0.6-0.5-1s-0.2-0.8-0.2-1.3c0-0.6,0.1-1,0.2-1.4c0.1-0.4,0.3-0.7,0.6-1c0.2-0.3,0.5-0.5,0.9-0.6    s0.7-0.2,1-0.2c0.2,0,0.4,0,0.6,0.1c0.2,0,0.4,0.1,0.6,0.2c0.2,0.1,0.3,0.2,0.5,0.3s0.3,0.3,0.4,0.4l0,0v-3.2H62V37H61.9z     M57.2,34c0,0.3,0,0.5,0.1,0.8c0.1,0.2,0.2,0.5,0.3,0.7s0.3,0.3,0.5,0.5c0.2,0.1,0.5,0.2,0.8,0.2s0.6-0.1,0.8-0.2    c0.2-0.1,0.4-0.3,0.5-0.5s0.2-0.4,0.3-0.7s0.1-0.5,0.1-0.8c0-0.7-0.1-1.2-0.5-1.6c-0.3-0.4-0.7-0.6-1.2-0.6    c-0.3,0-0.6,0.1-0.8,0.2s-0.4,0.3-0.5,0.5s-0.2,0.5-0.3,0.7C57.2,33.4,57.2,33.7,57.2,34z"/>
		<path class="st0" d="M66.2,37.2c-0.5,0-0.9-0.1-1.3-0.2s-0.7-0.4-1-0.7c-0.3-0.3-0.5-0.6-0.6-1s-0.2-0.8-0.2-1.3s0.1-0.9,0.2-1.3    c0.1-0.4,0.3-0.7,0.6-1c0.3-0.3,0.6-0.5,1-0.7s0.8-0.2,1.3-0.2s0.9,0.1,1.3,0.2c0.4,0.2,0.7,0.4,1,0.7c0.3,0.3,0.5,0.6,0.6,1    s0.2,0.8,0.2,1.3s-0.1,0.9-0.2,1.3c-0.1,0.4-0.3,0.7-0.6,1c-0.3,0.3-0.6,0.5-1,0.7C67.2,37.1,66.7,37.2,66.2,37.2z M66.2,36.1    c0.3,0,0.6-0.1,0.8-0.2c0.2-0.1,0.4-0.3,0.6-0.5c0.1-0.2,0.2-0.4,0.3-0.7c0.1-0.3,0.1-0.5,0.1-0.8s0-0.5-0.1-0.8s-0.2-0.5-0.3-0.7    c-0.1-0.2-0.3-0.4-0.6-0.5c-0.2-0.1-0.5-0.2-0.8-0.2s-0.6,0.1-0.8,0.2c-0.2,0.1-0.4,0.3-0.6,0.5c-0.1,0.2-0.2,0.4-0.3,0.7    c-0.1,0.3-0.1,0.5-0.1,0.8s0,0.5,0.1,0.8s0.2,0.5,0.3,0.7c0.1,0.2,0.3,0.4,0.6,0.5C65.7,36,65.9,36.1,66.2,36.1z"/>
		<path class="st0" d="M69.9,30.8h1.4l1.2,4.6l0,0l1.1-4.6H75l1.1,4.6l0,0l1.2-4.6h1.4L76.9,37h-1.4l-1.1-4.6l0,0L73.2,37h-1.4    L69.9,30.8z"/>
		<path class="st0" d="M79.8,30.8H81v0.9l0,0c0.2-0.3,0.5-0.6,0.8-0.8c0.3-0.2,0.7-0.3,1.1-0.3c0.7,0,1.2,0.2,1.6,0.5    s0.6,0.9,0.6,1.6V37h-1.4v-3.9c0-0.5-0.1-0.8-0.3-1c-0.2-0.2-0.5-0.3-0.9-0.3c-0.2,0-0.4,0-0.6,0.1s-0.3,0.2-0.5,0.3    c-0.1,0.1-0.2,0.3-0.3,0.5C81,32.9,81,33.1,81,33.3V37h-1.4L79.8,30.8L79.8,30.8z"/>
		<path class="st0" d="M86.6,28.5H88V37h-1.4V28.5z"/>
		<path class="st0" d="M92.3,37.2c-0.5,0-0.9-0.1-1.3-0.2s-0.7-0.4-1-0.7s-0.5-0.6-0.6-1s-0.2-0.8-0.2-1.3s0.1-0.9,0.2-1.3    c0.1-0.4,0.3-0.7,0.6-1c0.3-0.3,0.6-0.5,1-0.7s0.8-0.2,1.3-0.2s0.9,0.1,1.3,0.2c0.4,0.2,0.7,0.4,1,0.7c0.3,0.3,0.5,0.6,0.6,1    s0.2,0.8,0.2,1.3s-0.1,0.9-0.2,1.3c-0.1,0.4-0.3,0.7-0.6,1c-0.3,0.3-0.6,0.5-1,0.7C93.2,37.1,92.8,37.2,92.3,37.2z M92.3,36.1    c0.3,0,0.6-0.1,0.8-0.2c0.2-0.1,0.4-0.3,0.6-0.5c0.1-0.2,0.2-0.4,0.3-0.7c0.1-0.3,0.1-0.5,0.1-0.8s0-0.5-0.1-0.8s-0.2-0.5-0.3-0.7    c-0.1-0.2-0.3-0.4-0.6-0.5c-0.2-0.1-0.5-0.2-0.8-0.2s-0.6,0.1-0.8,0.2c-0.2,0.1-0.4,0.3-0.6,0.5c-0.1,0.2-0.2,0.4-0.3,0.7    c-0.1,0.3-0.1,0.5-0.1,0.8s0,0.5,0.1,0.8s0.2,0.5,0.3,0.7c0.1,0.2,0.3,0.4,0.6,0.5C91.7,36,92,36.1,92.3,36.1z"/>
		<path class="st0" d="M101.7,35.6c0,0.2,0,0.3,0.1,0.3s0.1,0.1,0.3,0.1h0.1c0.1,0,0.1,0,0.2,0v1c0,0-0.1,0-0.2,0.1s-0.1,0-0.2,0.1    c-0.1,0-0.2,0-0.2,0c-0.1,0-0.1,0-0.2,0c-0.3,0-0.5-0.1-0.7-0.2c-0.2-0.1-0.3-0.3-0.3-0.6c-0.3,0.3-0.6,0.5-1,0.6    s-0.8,0.2-1.1,0.2c-0.3,0-0.6,0-0.8-0.1c-0.2-0.1-0.5-0.2-0.7-0.3s-0.3-0.3-0.5-0.6c-0.1-0.2-0.2-0.5-0.2-0.8    c0-0.4,0.1-0.7,0.2-0.9s0.3-0.4,0.6-0.6c0.2-0.1,0.5-0.2,0.8-0.3s0.6-0.1,0.9-0.1c0.2,0,0.5-0.1,0.7-0.1s0.4-0.1,0.6-0.1    s0.3-0.1,0.4-0.2c0.1-0.1,0.1-0.2,0.1-0.5c0-0.2,0-0.3-0.1-0.4c-0.1-0.1-0.2-0.2-0.3-0.3c-0.1-0.1-0.3-0.1-0.4-0.1s-0.3,0-0.4,0    c-0.4,0-0.7,0.1-0.9,0.2c-0.2,0.2-0.4,0.4-0.4,0.7h-1.4c0-0.4,0.1-0.7,0.3-1c0.2-0.3,0.4-0.5,0.6-0.6c0.3-0.2,0.6-0.3,0.9-0.3    c0.3-0.1,0.7-0.1,1-0.1s0.6,0,0.9,0.1s0.6,0.2,0.8,0.3c0.2,0.1,0.4,0.3,0.6,0.6c0.1,0.2,0.2,0.5,0.2,0.8L101.7,35.6L101.7,35.6z     M100.3,33.9c-0.2,0.1-0.5,0.2-0.8,0.2s-0.6,0.1-0.9,0.1c-0.1,0-0.3,0.1-0.4,0.1s-0.2,0.1-0.3,0.2c-0.1,0.1-0.2,0.2-0.2,0.3    c-0.1,0.1-0.1,0.3-0.1,0.5c0,0.1,0,0.3,0.1,0.4c0.1,0.1,0.2,0.2,0.3,0.2c0.1,0.1,0.3,0.1,0.4,0.1s0.3,0,0.4,0s0.3,0,0.5-0.1    c0.2,0,0.3-0.1,0.5-0.2c0.2-0.1,0.3-0.2,0.4-0.4c0.1-0.1,0.2-0.3,0.2-0.5L100.3,33.9L100.3,33.9z"/>
		<path class="st0" d="M109,37h-1.3v-0.8l0,0c-0.2,0.3-0.5,0.6-0.8,0.8s-0.7,0.2-1.1,0.2c-0.5,0-0.9-0.1-1.3-0.3s-0.7-0.4-0.9-0.7    c-0.2-0.3-0.4-0.6-0.5-1s-0.2-0.8-0.2-1.3c0-0.6,0.1-1,0.2-1.4s0.3-0.7,0.6-1s0.5-0.5,0.9-0.6c0.3-0.1,0.7-0.2,1-0.2    c0.2,0,0.4,0,0.6,0.1c0.2,0,0.4,0.1,0.6,0.2s0.3,0.2,0.5,0.3c0.2,0.1,0.3,0.3,0.4,0.4l0,0v-3.2h1.4L109,37L109,37z M104.2,34    c0,0.3,0,0.5,0.1,0.8c0.1,0.2,0.2,0.5,0.3,0.7c0.1,0.2,0.3,0.3,0.5,0.5c0.2,0.1,0.5,0.2,0.8,0.2s0.6-0.1,0.8-0.2    c0.2-0.1,0.4-0.3,0.5-0.5s0.2-0.4,0.3-0.7s0.1-0.5,0.1-0.8c0-0.7-0.1-1.2-0.5-1.6c-0.3-0.4-0.7-0.6-1.2-0.6    c-0.3,0-0.6,0.1-0.8,0.2c-0.2,0.1-0.4,0.3-0.5,0.5s-0.2,0.5-0.3,0.7C104.3,33.4,104.2,33.7,104.2,34z"/>
		<path class="st0" d="M111.5,35c0,0.4,0.2,0.7,0.5,0.8c0.3,0.2,0.6,0.2,0.9,0.2c0.1,0,0.3,0,0.4,0c0.2,0,0.3-0.1,0.5-0.1    c0.1-0.1,0.3-0.1,0.3-0.2s0.1-0.2,0.1-0.4s-0.1-0.3-0.2-0.4c-0.1-0.1-0.3-0.2-0.5-0.3s-0.4-0.1-0.6-0.2c-0.2,0-0.5-0.1-0.7-0.2    c-0.2-0.1-0.5-0.1-0.7-0.2c-0.2-0.1-0.5-0.2-0.6-0.3c-0.2-0.1-0.3-0.3-0.5-0.5c-0.1-0.2-0.2-0.5-0.2-0.8s0.1-0.6,0.2-0.8    c0.2-0.2,0.4-0.4,0.6-0.6s0.5-0.2,0.8-0.3c0.3-0.1,0.6-0.1,0.9-0.1s0.6,0,0.9,0.1s0.6,0.2,0.8,0.3c0.2,0.1,0.4,0.3,0.6,0.6    c0.2,0.2,0.2,0.5,0.3,0.9H114c-0.1-0.3-0.2-0.6-0.5-0.7c-0.2-0.1-0.5-0.2-0.8-0.2c-0.1,0-0.2,0-0.3,0c-0.1,0-0.2,0-0.4,0.1    c-0.1,0-0.2,0.1-0.3,0.2c-0.1,0.1-0.1,0.2-0.1,0.3c0,0.2,0.1,0.3,0.2,0.4c0.1,0.1,0.3,0.2,0.5,0.3s0.4,0.1,0.6,0.2    c0.2,0,0.5,0.1,0.7,0.2c0.2,0.1,0.5,0.1,0.7,0.2c0.2,0.1,0.5,0.2,0.6,0.3c0.2,0.1,0.3,0.3,0.5,0.5s0.2,0.5,0.2,0.8    c0,0.4-0.1,0.7-0.2,0.9c-0.2,0.2-0.4,0.5-0.7,0.6c-0.3,0.2-0.6,0.3-0.9,0.3c-0.3,0.1-0.7,0.1-1,0.1c-0.4,0-0.8,0-1.1-0.1    c-0.3-0.1-0.6-0.2-0.9-0.4c-0.2-0.2-0.4-0.4-0.6-0.7c-0.1-0.3-0.2-0.6-0.2-0.9L111.5,35L111.5,35z"/>
	</g>
</g>
<rect x="12" y="47" class="st0" width="92" height="1"/>
<g>
	<g>
		<g>
			<path class="st0" d="M44.6,58c-0.4,0-0.8,0.4-0.8,0.8v0.5c-0.5-0.4-0.8-0.7-1.3-1c-0.5-0.2-1-0.3-1.6-0.3s-1.2,0.1-1.7,0.3     s-1,0.5-1.4,1c-0.4,0.4-0.7,0.9-0.9,1.4s-0.3,1.1-0.3,1.7c0,1.3,0.4,2.4,1.3,3.2c0.9,0.9,1.9,1.3,3.2,1.3c0.5,0,1-0.1,1.5-0.3     c0.5-0.2,0.8-0.5,1.3-0.9V66c0,0.4,0.4,0.8,0.8,0.8c0.4,0,0.8-0.4,0.8-0.8v-7.3C45.4,58.3,45.1,58,44.6,58z M43.1,64.6     c-0.6,0.6-1.2,0.9-2,0.9s-1.5-0.3-2.1-0.9s-0.9-1.3-0.9-2.2c0-0.8,0.3-1.5,0.9-2.1c0.6-0.6,1.3-0.9,2.1-0.9s1.5,0.3,2,0.9     c0.6,0.6,0.9,1.3,0.9,2.1S43.7,64,43.1,64.6z M51.1,58.1c-0.5,0-1,0.1-1.4,0.3s-0.6,0.4-1.1,0.9v-0.4c0-0.4-0.4-0.8-0.8-0.8     c-0.4,0-0.8,0.4-0.8,0.8V66c0,0.4,0.4,0.8,0.8,0.8c0.4,0,0.8-0.4,0.8-0.8v-3.1c0-1.2,0.3-2,0.6-2.5c0.4-0.5,1-0.8,1.7-0.8     s1.4,0.2,1.7,0.6c0.3,0.5,0.6,1.1,0.6,2V66c0,0.4,0.4,0.8,0.8,0.8c0.4,0,0.8-0.4,0.8-0.8v-4.1c0-1.2-0.4-2.2-1-2.8     C53.2,58.4,52.2,58.1,51.1,58.1z M64.4,58c-0.4,0-0.8,0.4-0.8,0.8v0.5c-0.5-0.4-0.8-0.7-1.3-1s-1-0.3-1.6-0.3s-1.2,0.1-1.7,0.3     s-1,0.5-1.4,1c-0.4,0.4-0.7,0.9-0.9,1.4s-0.3,1.1-0.3,1.7c0,1.3,0.4,2.4,1.3,3.2c0.9,0.9,1.9,1.3,3.2,1.3c0.5,0,1-0.1,1.5-0.3     c0.5-0.2,0.8-0.5,1.3-0.9V66c0,0.4,0.4,0.8,0.8,0.8s0.8-0.4,0.8-0.8v-7.3C65.1,58.3,64.8,58,64.4,58z M62.9,64.6     c-0.6,0.6-1.2,0.9-2,0.9s-1.5-0.3-2.1-0.9s-0.9-1.3-0.9-2.2c0-0.8,0.3-1.5,0.9-2.1c0.6-0.6,1.3-0.9,2.1-0.9s1.5,0.3,2,0.9     c0.6,0.6,0.9,1.3,0.9,2.1C63.7,63.3,63.4,64,62.9,64.6z M68,55.4c-0.4,0-0.8,0.4-0.8,0.8V66c0,0.4,0.4,0.8,0.8,0.8     s0.8-0.4,0.8-0.8v-9.8C68.8,55.7,68.5,55.4,68,55.4z M76.8,58c-0.3,0-0.6,0.2-0.7,0.5l-2.3,5.9l-2.1-5.9C71.6,58.2,71.3,58,71,58     c-0.5,0-0.9,0.5-0.7,1l2.7,7.3l-0.8,2c-0.2,0.5,0.2,1,0.7,1l0,0c0.3,0,0.6-0.2,0.7-0.5l4-9.8C77.8,58.6,77.3,58,76.8,58z      M82.5,58h-0.8v-1.8c0-0.4-0.4-0.8-0.8-0.8s-0.8,0.4-0.8,0.8V58h-0.8c-0.4,0-0.8,0.4-0.8,0.8c0,0.4,0.4,0.8,0.8,0.8h0.8V66     c0,0.4,0.4,0.8,0.8,0.8s0.8-0.4,0.8-0.8v-6.5h0.8c0.4,0,0.8-0.4,0.8-0.8C83.3,58.3,82.9,58,82.5,58z M85.6,55.4     c-0.4,0-0.8,0.4-0.8,0.8c0,0.4,0.4,0.8,0.8,0.8s0.8-0.4,0.8-0.8C86.3,55.7,86,55.4,85.6,55.4z M85.6,58c-0.4,0-0.8,0.4-0.8,0.8     V66c0,0.4,0.4,0.8,0.8,0.8s0.8-0.4,0.8-0.8v-7.3C86.3,58.3,86,58,85.6,58z M91.8,58h-1.3c0-0.4,0.1-0.6,0.3-0.8     c0.1-0.1,0.3-0.3,0.5-0.3s0.8-0.3,0.5-1c-0.1-0.5-0.6-0.5-0.8-0.5c-0.6,0-1,0.3-1.4,0.6c-0.5,0.5-0.8,1.1-0.8,2l0,0H88     c-0.4,0-0.8,0.4-0.8,0.8s0.4,0.8,0.8,0.8h0.8v6.5c0,0.4,0.4,0.8,0.8,0.8s0.8-0.4,0.8-0.8v-6.5h1.3c0.4,0,0.8-0.4,0.8-0.8     C92.5,58.3,92.2,58,91.8,58z M100.4,58L100.4,58c-0.3,0-0.6,0.2-0.7,0.5l-2.3,5.9l-2.1-5.9c-0.1-0.3-0.4-0.5-0.7-0.5l0,0     c-0.5,0-0.9,0.5-0.7,1l2.7,7.3l-0.8,2c-0.2,0.5,0.2,1,0.7,1c0.3,0,0.6-0.2,0.7-0.5l4-9.8C101.3,58.6,100.9,58,100.4,58z"/>
		</g>
	</g>
	<path class="st1" d="M29.3,67.4c-0.4,0-0.6-0.3-0.6-0.6v-0.6v-0.5c-1.4,2-3.6,3.4-6.3,3.4c-4.2,0-7.5-3.4-7.5-7.5s3.4-7.5,7.5-7.5   c2.6,0,4.9,1.3,6.3,3.4v-0.1l0,0l0,0c0-0.3,0.3-0.6,0.6-0.6c0.3,0,0.6,0.3,0.6,0.6l0,0l0,0v1v8V67C29.9,67.1,29.6,67.4,29.3,67.4z    M22.4,55.3c-3.4,0-6.3,2.8-6.3,6.3c0,3.4,2.8,6.3,6.3,6.3s6.3-2.8,6.3-6.3C28.6,58.1,25.8,55.3,22.4,55.3z"/>
	<g>
		<g>
			<path class="st2" d="M19.8,61.1c-0.4,0-0.7,0.3-0.7,0.7v2.4c0,0.4,0.3,0.7,0.7,0.7s0.7-0.3,0.7-0.7v-2.4     C20.5,61.4,20.2,61.1,19.8,61.1z M22.4,59.9c-0.4,0-0.7,0.3-0.7,0.7v3.6c0,0.4,0.3,0.7,0.7,0.7s0.7-0.3,0.7-0.7v-3.6     C23.1,60.2,22.8,59.9,22.4,59.9z M25,58.1c-0.4,0-0.7,0.3-0.7,0.7v5.4c0,0.4,0.3,0.7,0.7,0.7s0.7-0.3,0.7-0.7v-5.4     C25.7,58.5,25.4,58.1,25,58.1z"/>
		</g>
	</g>
</g>
</svg>