<svg xmlns="http://www.w3.org/2000/svg" xmlns:xlink="http://www.w3.org/1999/xlink" version="1.1" id="Layer_1" x="0px" y="0px" width="101px" height="70px" viewBox="0 0 101 70" style="enable-background:new 0 0 101 70;" xml:space="preserve">
<style type="text/css">
	.st0{fill-rule:evenodd;clip-rule:evenodd;fill:#23282D;}
	.st1{fill-rule:evenodd;clip-rule:evenodd;fill:#F1F1F1;}
	.st2{fill:#B4B9BE;}
	.st3{fill-rule:evenodd;clip-rule:evenodd;fill:#9EA3A8;}
</style>
<path class="st0" d="M92.6,18H22c-4.5,0-8.1,3.6-8,8.1V53c0,4.5,3.5,8.1,8,8.1h34l15,9l-4-9h26c4.5,0,8-3.5,8-8V26  C101,21.5,97.1,18,92.6,18z M21.2,24.7c-1,0.1-1.7,0.4-2.2,1.1c-0.5,0.6-0.7,1.4-0.6,2.3c2.1,13.1,4,22,5.8,26.6  c0.7,1.7,1.5,2.5,2.5,2.4C28.2,57,29.9,55,32,51c1.1-2.2,2.8-5.6,5.1-10.1c1.9,6.6,4.5,11.6,7.8,14.9c0.9,0.9,1.9,1.4,2.8,1.3  c0.8-0.1,1.4-0.5,1.9-1.3c0.4-0.7,0.5-1.4,0.4-2.3c-0.2-3.2,0.1-7.6,1-13.3c0.9-5.9,2-10.1,3.4-12.6c0.3-0.5,0.4-1.1,0.4-1.7  c-0.1-0.8-0.4-1.5-1.1-2c-0.7-0.5-1.4-0.8-2.2-0.7c-1,0.1-1.8,0.6-2.3,1.5c-2.2,4-3.7,10.4-4.6,19.3c-1.3-3.4-2.5-7.3-3.3-12  c-0.4-2.1-1.3-3-2.9-2.9c-1.1,0.1-1.9,0.8-2.6,2.1l-7.7,14.6c-1.3-5.1-2.5-11.3-3.6-18.6C24,25.4,23,24.5,21.2,24.7z M89,27.2  c2.5,0.5,4.4,1.9,5.6,4.1c1.1,1.9,1.7,4.2,1.7,6.9c0,3.6-0.9,6.9-2.7,9.9c-2.1,3.5-4.9,5.3-8.3,5.3c-0.6,0-1.2-0.1-1.9-0.2  c-2.5-0.5-4.4-1.9-5.6-4.1c-1.1-1.9-1.7-4.2-1.7-6.9c0-3.6,0.9-6.9,2.7-9.9c2.1-3.5,4.9-5.3,8.3-5.3C87.7,27,88.3,27.1,89,27.2z   M87.5,46.1c1.3-1.2,2.2-2.9,2.7-5.2c0.1-0.8,0.2-1.7,0.2-2.6c0-1-0.2-2.1-0.6-3.2c-0.5-1.4-1.2-2.1-2.1-2.3  c-1.3-0.2-2.5,0.5-3.7,2.2c-0.9,1.3-1.5,2.7-1.9,4.2c-0.2,0.8-0.2,1.7-0.2,2.6c0,1,0.2,2.1,0.6,3.2c0.5,1.4,1.2,2.1,2.1,2.3  C85.5,47.4,86.5,47,87.5,46.1z M72.6,31.3c-1.3-2.2-3.2-3.5-5.6-4.1c-0.7-0.1-1.4-0.2-2-0.2c-3.4,0-6.1,1.8-8.3,5.3  c-1.8,3-2.7,6.3-2.7,9.9c0,2.7,0.6,5,1.7,6.9c1.3,2.2,3.1,3.5,5.6,4.1c0.7,0.1,1.3,0.2,1.9,0.2c3.4,0,6.2-1.8,8.3-5.3  c1.8-3,2.7-6.3,2.7-9.9C74.2,35.4,73.7,33.1,72.6,31.3z M68.1,41c-0.5,2.3-1.4,4-2.7,5.2c-1,0.9-2,1.3-2.8,1.1s-1.5-0.9-2.1-2.3  c-0.4-1.1-0.6-2.2-0.6-3.2c0-0.9,0.1-1.8,0.2-2.6c0.3-1.4,0.9-2.8,1.9-4.2c1.2-1.7,2.4-2.4,3.7-2.2c0.8,0.2,1.5,0.9,2.1,2.3  c0.4,1.1,0.6,2.2,0.6,3.2S68.3,40.1,68.1,41z"/>
<g>
	<circle class="st1" cx="18" cy="18" r="17.5"/>
	<path class="st2" d="M18,1c9.4,0,17,7.6,17,17s-7.6,17-17,17S1,27.4,1,18S8.6,1,18,1 M18,0C8.1,0,0,8.1,0,18s8.1,18,18,18   s18-8.1,18-18S27.9,0,18,0L18,0z"/>
</g>
<g>
	<path class="st0" d="M28,27.4c-0.6,0-1-0.4-1-1v-1v-0.7c-2.1,3.1-5.6,5.1-9.6,5.1c-6.4,0-11.5-5.1-11.5-11.5S11,6.9,17.4,6.9   c4,0,7.5,2,9.6,5.1v-0.2v-0.1l0,0c0.1-0.5,0.5-0.9,1-0.9s0.9,0.4,1,0.9l0,0v0.1v1.4v12.2v1C28.9,26.9,28.5,27.4,28,27.4z M17.4,8.8   c-5.3,0-9.6,4.3-9.6,9.6s4.3,9.6,9.6,9.6s9.6-4.3,9.6-9.6S22.7,8.8,17.4,8.8z"/>
	<g>
		<g>
			<path class="st3" d="M13.5,17.6c-0.6,0-1.1,0.5-1.1,1.1v3.7c0,0.6,0.5,1.1,1.1,1.1s1.1-0.5,1.1-1.1v-3.6     C14.5,18.1,14,17.6,13.5,17.6z M17.4,15.9c-0.6,0-1.1,0.5-1.1,1.1v5.5c0,0.6,0.5,1.1,1.1,1.1s1.1-0.5,1.1-1.1V17     C18.5,16.3,18,15.9,17.4,15.9z M21.4,13.2c-0.6,0-1.1,0.5-1.1,1.1v8.2c0,0.6,0.5,1.1,1.1,1.1s1.1-0.5,1.1-1.1v-8.2     C22.5,13.6,22,13.2,21.4,13.2z"/>
		</g>
	</g>
</g>
</svg>