<?xml version="1.0" encoding="utf-8"?>
<!-- Generator: Adobe Illustrator 24.0.1, SVG Export Plug-In . SVG Version: 6.00 Build 0)  -->
<svg version="1.1" id="Layer_1" xmlns="http://www.w3.org/2000/svg" xmlns:xlink="http://www.w3.org/1999/xlink" x="0px" y="0px"
	 width="109px" height="70px" viewBox="0 0 109 70" style="enable-background:new 0 0 109 70;" xml:space="preserve">
<style type="text/css">
	.st0{fill:#F1F1F1;}
	.st1{fill:#B4B9BE;}
	.st2{fill:#FF5252;}
	.st3{fill:#9EA3A8;}
	.st4{fill:#00B9EB;}
	.st5{fill:#23282D;}
</style>
<g>
	<path class="st0" d="M6,69.5c-3,0-5.5-2.5-5.5-5.5V6C0.5,3,3,0.5,6,0.5h72c3,0,5.5,2.5,5.5,5.5v58c0,3-2.5,5.5-5.5,5.5H6z"/>
	<path class="st1" d="M78,1c2.8,0,5,2.2,5,5v58c0,2.8-2.2,5-5,5H6c-2.8,0-5-2.2-5-5V6c0-2.8,2.2-5,5-5H78 M78,0H6C2.7,0,0,2.7,0,6
		v58c0,3.3,2.7,6,6,6h72c3.3,0,6-2.7,6-6V6C84,2.7,81.3,0,78,0L78,0z"/> 
</g>
<rect x="15" y="52" class="st2" width="6" height="5"/>
<rect x="25" y="40" class="st3" width="6" height="17"/>
<rect x="55" y="34" class="st3" width="6" height="23"/>
<rect x="9" y="10" class="st3" width="1" height="50"/>
<rect x="9" y="60" class="st3" width="66" height="1"/>
<rect x="35" y="28" class="st4" width="6" height="29"/>
<rect x="45" y="46" class="st2" width="6" height="11"/>
<rect x="66" y="10" class="st4" width="6" height="47"/>
<g>
	<g>
		<path class="st2" d="M69.2,21.1L69.2,21.1c0.7,0,1.4,0.1,2.2,0.3c2.3,0.6,4.3,2,5.6,4.1c1.2,2.1,1.6,4.5,1,6.8
			c-1,4-4.6,6.9-8.7,6.9c-0.7,0-1.4-0.1-2.2-0.3c-4.8-1.2-7.8-6.1-6.6-10.9C61.4,23.9,65,21.1,69.2,21.1 M69.2,19.1
			c-4.9,0-9.4,3.4-10.7,8.4c-1.4,5.9,2.2,11.9,8.1,13.3c0.9,0.2,1.8,0.3,2.6,0.3c4.9,0,9.4-3.4,10.7-8.4c1.4-5.9-2.2-11.9-8.1-13.3
			C70.9,19.2,70,19.1,69.2,19.1L69.2,19.1z"/>
	</g>
	<g>
		<path class="st2" d="M69.2,34.1c-0.3,0-0.6,0-1-0.1c-1-0.3-1.9-0.9-2.5-1.8c-0.6-0.9-0.7-2-0.5-3c0.4-1.8,2-3,3.9-3
			c0.3,0,0.6,0,1,0.1c2.1,0.5,3.5,2.7,2.9,4.8C72.6,32.8,71,34.1,69.2,34.1z"/>
		<path class="st2" d="M69.2,27.1L69.2,27.1c0.2,0,0.5,0,0.7,0.1c0.8,0.2,1.4,0.7,1.9,1.4c0.4,0.7,0.5,1.5,0.3,2.3
			c-0.3,1.3-1.5,2.3-2.9,2.3c-0.2,0-0.5,0-0.7-0.1c-1.6-0.4-2.6-2-2.2-3.6C66.6,28,67.8,27.1,69.2,27.1 M69.2,25.1
			c-2.2,0-4.3,1.5-4.9,3.8c-0.7,2.7,1,5.4,3.7,6c0.4,0.1,0.8,0.1,1.2,0.1c2.2,0,4.3-1.5,4.9-3.8c0.7-2.7-1-5.4-3.7-6
			C70,25.1,69.6,25.1,69.2,25.1L69.2,25.1z"/>
	</g>
	<g>
		<path class="st5" d="M67.7,30.9L67.7,30.9c-0.6-0.9-0.3-2.2,0.7-2.7L98.1,9.9l2.1,3.4L70.5,31.6C69.6,32.2,68.3,31.9,67.7,30.9z"
			/>
		<polygon class="st1" points="98.1,9.9 101.5,2 95.4,9.3 94.7,6.2 85.1,17.9 		"/>
		<polygon class="st1" points="100.2,13.3 108.8,14 99.5,16.1 102,18.1 87.2,21.3 		"/>
	</g>
</g>
</svg>
