<?xml version="1.0" encoding="UTF-8" standalone="no"?> <svg xmlns:dc="http://purl.org/dc/elements/1.1/" xmlns:cc="http://creativecommons.org/ns#" xmlns:rdf="http://www.w3.org/1999/02/22-rdf-syntax-ns#" xmlns:svg="http://www.w3.org/2000/svg" xmlns="http://www.w3.org/2000/svg" xmlns:sodipodi="http://sodipodi.sourceforge.net/DTD/sodipodi-0.dtd" xmlns:inkscape="http://www.inkscape.org/namespaces/inkscape" inkscape:version="1.0beta1 (32d4812, 2019-09-19)" sodipodi:docname="Background_Black.svg" id="svg905" fill="none" viewBox="0 0 7630 4766" height="4766" width="7630"><metadata id="metadata909"></metadata><g clip-path="url(#clipPath924)" id="g920"><path d="M0 2156C0 2156 2353.5 1106.5 3886.5 1576C5419.5 2045.5 6275 4766 6275 4766H0V2156Z" fill="url(#paint0_linear)" id="path833"></path><path d="M0 0H3617.16C5710.6 106.35 6605.01 389.629 7630 1351.52V4766C6830.59 4723.8 6446.98 4653.97 6226.86 4197.75C4822.68 1475.99 3354.08 1093.01 0 1642.38V0Z" fill="url(#paint1_linear)" id="path835"></path><g filter="url(#filter0_d)" id="g839"><path d="M0 1563C499.755 1550.07 948.45 1580.87 2412 1297C3807.5 1072 3866 1537 4779.5 2328C4896.6 2429.4 5667 3629 5667 3629L6126.5 4282C5545.39 3758.95 5490.97 3795.43 5080.5 3037C4352.64 1835.17 3654.83 1482.63 1697.5 2060C954.194 2285.31 591.417 2368.4 0 2472V1563Z" fill="#131726" id="path837"></path></g><path d="M3 1563.14C502.755 1550.21 962.95 1440.01 2426.5 1156.14C3822 931.139 4771.77 1016 5508.5 2809.64C6112.5 4280.14 6787 4401.64 8309.5 4790.64H6206.5C5625.39 4267.58 5347.47 3909.57 4937 3151.14C4209.14 1949.31 3657.83 1482.77 1700.5 2060.14C957.194 2285.45 594.417 2368.54 3 2472.14V1563.14Z" fill="url(#paint2_linear)" id="path841"></path><path d="M451.532 3304.66C3844.01 1146.31 3559.01 4120.55 5336 4856C7112.99 5591.45 5114.73 4925.35 5114.73 4925.35H-0.232422C-0.232422 4925.35 -2940.95 5463.01 451.532 3304.66Z" fill="url(#paint3_linear)" id="path843"></path><g filter="url(#filter1_d)" id="g847"><path d="M3205 -114H7790.5V2693.5C7058.42 2373.46 6877.5 2908 6494 2018C6110.5 1128 5749 778.54 4216.5 571.5C3604 488.752 3608 152.5 3205 -114Z" fill="#050818" id="path845"></path></g><path d="M2479 0H7630V3409C6897.92 3088.96 6546.5 2488.5 6288 1794.5C6029.5 1100.5 5493.22 727.905 4463.5 663C3602.9 614.271 3173.87 455.64 2479 0Z" fill="#050818" id="path849"></path></g><defs id="defs903"><filter color-interpolation-filters="sRGB" height="3541.72" width="6626.5" y="990.284" x="-250" id="filter0_d"><feFlood id="feFlood851" result="BackgroundImageFix" flood-opacity="0"></feFlood><feColorMatrix id="feColorMatrix853" values="0 0 0 0 0 0 0 0 0 0 0 0 0 0 0 0 0 0 127 0" type="matrix" in="SourceAlpha"></feColorMatrix><feOffset id="feOffset855"></feOffset><feGaussianBlur id="feGaussianBlur857" stdDeviation="125"></feGaussianBlur><feColorMatrix id="feColorMatrix859" values="0 0 0 0 0 0 0 0 0 0 0 0 0 0 0 0 0 0 1 0" type="matrix"></feColorMatrix><feBlend id="feBlend861" result="effect1_dropShadow" in2="BackgroundImageFix" mode="normal"></feBlend><feBlend id="feBlend863" result="shape" in2="effect1_dropShadow" in="SourceGraphic" mode="normal"></feBlend></filter><filter color-interpolation-filters="sRGB" height="3307.5" width="5085.5" y="-364" x="2955" id="filter1_d"><feFlood id="feFlood866" result="BackgroundImageFix" flood-opacity="0"></feFlood><feColorMatrix id="feColorMatrix868" values="0 0 0 0 0 0 0 0 0 0 0 0 0 0 0 0 0 0 127 0" type="matrix" in="SourceAlpha"></feColorMatrix><feOffset id="feOffset870"></feOffset><feGaussianBlur id="feGaussianBlur872" stdDeviation="125"></feGaussianBlur><feColorMatrix id="feColorMatrix874" values="0 0 0 0 0 0 0 0 0 0 0 0 0 0 0 0 0 0 1 0" type="matrix"></feColorMatrix><feBlend id="feBlend876" result="effect1_dropShadow" in2="BackgroundImageFix" mode="normal"></feBlend><feBlend id="feBlend878" result="shape" in2="effect1_dropShadow" in="SourceGraphic" mode="normal"></feBlend></filter><linearGradient gradientUnits="userSpaceOnUse" y2="4883.5" x2="3860" y1="1455.11" x1="3137.5" id="paint0_linear"><stop id="stop881" stop-color="#131621"></stop><stop id="stop883" stop-color="#0C101F" offset="0.585512"></stop><stop id="stop885" stop-color="#171A29" offset="1"></stop></linearGradient><linearGradient gradientUnits="userSpaceOnUse" y2="3404.5" x2="7218" y1="338" x1="682" id="paint1_linear"><stop id="stop888" stop-color="#10121C"></stop><stop id="stop890" stop-color="#171A29" offset="1"></stop></linearGradient><linearGradient gradientUnits="userSpaceOnUse" y2="4649.5" x2="6871" y1="1700.5" x1="284.5" id="paint2_linear"><stop id="stop893" stop-color="#151825"></stop><stop id="stop895" stop-color="#0C0F1C" offset="1"></stop></linearGradient><linearGradient gradientUnits="userSpaceOnUse" y2="5108.5" x2="7407" y1="2848.5" x1="-6.50038" id="paint3_linear"><stop id="stop898" stop-color="#191D2D"></stop><stop id="stop900" stop-color="#0C0F1C" offset="1"></stop></linearGradient><clipPath id="clipPath924"><rect y="0" x="0" height="4766" width="7630" id="rect926" style="fill:#1ea3fe;stroke-width:0;stroke-miterlimit:10"></rect></clipPath></defs></svg> 